<mxfile host="app.diagrams.net" agent="Mozilla/5.0 (Windows NT 10.0; Win64; x64) AppleWebKit/537.36 (KHTML, like Gecko) Chrome/128.0.0.0 Safari/537.36" version="24.7.7">
  <diagram name="Page-1" id="2ca16b54-16f6-2749-3443-fa8db7711227">
    <mxGraphModel dx="1273" dy="1719" grid="1" gridSize="10" guides="1" tooltips="1" connect="1" arrows="1" fold="1" page="1" pageScale="1" pageWidth="1100" pageHeight="850" background="none" math="0" shadow="0">
      <root>
        <mxCell id="0" />
        <mxCell id="1" parent="0" />
        <mxCell id="W6JMrzAl0BDulRiqm-cF-23" value="&lt;span style=&quot;font-family: Verdana; text-align: left;&quot;&gt;&lt;font style=&quot;&quot; color=&quot;#ffffff&quot;&gt;Owners&lt;/font&gt;&lt;/span&gt;" style="shape=table;startSize=30;container=1;collapsible=1;childLayout=tableLayout;fixedRows=1;rowLines=0;fontStyle=1;align=center;resizeLast=1;html=1;fillColor=#6666FF;" vertex="1" parent="1">
          <mxGeometry x="40" y="-850" width="240" height="210" as="geometry" />
        </mxCell>
        <mxCell id="W6JMrzAl0BDulRiqm-cF-24" value="" style="shape=tableRow;horizontal=0;startSize=0;swimlaneHead=0;swimlaneBody=0;fillColor=none;collapsible=0;dropTarget=0;points=[[0,0.5],[1,0.5]];portConstraint=eastwest;top=0;left=0;right=0;bottom=1;" vertex="1" parent="W6JMrzAl0BDulRiqm-cF-23">
          <mxGeometry y="30" width="240" height="30" as="geometry" />
        </mxCell>
        <mxCell id="W6JMrzAl0BDulRiqm-cF-25" value="PK" style="shape=partialRectangle;connectable=0;fillColor=none;top=0;left=0;bottom=0;right=0;fontStyle=1;overflow=hidden;whiteSpace=wrap;html=1;" vertex="1" parent="W6JMrzAl0BDulRiqm-cF-24">
          <mxGeometry width="30" height="30" as="geometry">
            <mxRectangle width="30" height="30" as="alternateBounds" />
          </mxGeometry>
        </mxCell>
        <mxCell id="W6JMrzAl0BDulRiqm-cF-26" value="&lt;span style=&quot;text-wrap: nowrap; font-family: Verdana;&quot;&gt;owner_id&lt;span style=&quot;white-space-collapse: preserve;&quot;&gt;&#x9;&lt;span style=&quot;white-space-collapse: preserve;&quot;&gt;&#x9;&lt;/span&gt;&lt;/span&gt;&lt;/span&gt;&lt;span style=&quot;text-wrap: nowrap; font-family: Verdana;&quot;&gt;INT&lt;/span&gt;" style="shape=partialRectangle;connectable=0;fillColor=none;top=0;left=0;bottom=0;right=0;align=left;spacingLeft=6;fontStyle=5;overflow=hidden;whiteSpace=wrap;html=1;" vertex="1" parent="W6JMrzAl0BDulRiqm-cF-24">
          <mxGeometry x="30" width="210" height="30" as="geometry">
            <mxRectangle width="210" height="30" as="alternateBounds" />
          </mxGeometry>
        </mxCell>
        <mxCell id="W6JMrzAl0BDulRiqm-cF-27" value="" style="shape=tableRow;horizontal=0;startSize=0;swimlaneHead=0;swimlaneBody=0;fillColor=none;collapsible=0;dropTarget=0;points=[[0,0.5],[1,0.5]];portConstraint=eastwest;top=0;left=0;right=0;bottom=0;" vertex="1" parent="W6JMrzAl0BDulRiqm-cF-23">
          <mxGeometry y="60" width="240" height="30" as="geometry" />
        </mxCell>
        <mxCell id="W6JMrzAl0BDulRiqm-cF-28" value="" style="shape=partialRectangle;connectable=0;fillColor=none;top=0;left=0;bottom=0;right=0;editable=1;overflow=hidden;whiteSpace=wrap;html=1;" vertex="1" parent="W6JMrzAl0BDulRiqm-cF-27">
          <mxGeometry width="30" height="30" as="geometry">
            <mxRectangle width="30" height="30" as="alternateBounds" />
          </mxGeometry>
        </mxCell>
        <mxCell id="W6JMrzAl0BDulRiqm-cF-29" value="&lt;span style=&quot;text-wrap: nowrap; font-family: Verdana;&quot;&gt;first_name&lt;/span&gt;&lt;span style=&quot;font-family: Verdana; white-space: pre;&quot;&gt;&#x9;&lt;span style=&quot;white-space: pre;&quot;&gt;&#x9;&lt;/span&gt;&lt;/span&gt;&lt;span style=&quot;text-wrap: nowrap; font-family: Verdana;&quot;&gt;VARCHAR(50)&lt;/span&gt;" style="shape=partialRectangle;connectable=0;fillColor=none;top=0;left=0;bottom=0;right=0;align=left;spacingLeft=6;overflow=hidden;whiteSpace=wrap;html=1;" vertex="1" parent="W6JMrzAl0BDulRiqm-cF-27">
          <mxGeometry x="30" width="210" height="30" as="geometry">
            <mxRectangle width="210" height="30" as="alternateBounds" />
          </mxGeometry>
        </mxCell>
        <mxCell id="W6JMrzAl0BDulRiqm-cF-30" value="" style="shape=tableRow;horizontal=0;startSize=0;swimlaneHead=0;swimlaneBody=0;fillColor=none;collapsible=0;dropTarget=0;points=[[0,0.5],[1,0.5]];portConstraint=eastwest;top=0;left=0;right=0;bottom=0;" vertex="1" parent="W6JMrzAl0BDulRiqm-cF-23">
          <mxGeometry y="90" width="240" height="30" as="geometry" />
        </mxCell>
        <mxCell id="W6JMrzAl0BDulRiqm-cF-31" value="" style="shape=partialRectangle;connectable=0;fillColor=none;top=0;left=0;bottom=0;right=0;editable=1;overflow=hidden;whiteSpace=wrap;html=1;" vertex="1" parent="W6JMrzAl0BDulRiqm-cF-30">
          <mxGeometry width="30" height="30" as="geometry">
            <mxRectangle width="30" height="30" as="alternateBounds" />
          </mxGeometry>
        </mxCell>
        <mxCell id="W6JMrzAl0BDulRiqm-cF-32" value="&lt;span style=&quot;text-wrap: nowrap; font-family: Verdana;&quot;&gt;last_name&lt;span style=&quot;white-space-collapse: preserve;&quot;&gt;&#x9;&lt;/span&gt;&lt;span style=&quot;white-space-collapse: preserve;&quot;&gt;&#x9;&lt;/span&gt;&lt;/span&gt;&lt;span style=&quot;text-wrap: nowrap; font-family: Verdana;&quot;&gt;VARCHAR(50)&lt;/span&gt;" style="shape=partialRectangle;connectable=0;fillColor=none;top=0;left=0;bottom=0;right=0;align=left;spacingLeft=6;overflow=hidden;whiteSpace=wrap;html=1;" vertex="1" parent="W6JMrzAl0BDulRiqm-cF-30">
          <mxGeometry x="30" width="210" height="30" as="geometry">
            <mxRectangle width="210" height="30" as="alternateBounds" />
          </mxGeometry>
        </mxCell>
        <mxCell id="W6JMrzAl0BDulRiqm-cF-33" value="" style="shape=tableRow;horizontal=0;startSize=0;swimlaneHead=0;swimlaneBody=0;fillColor=none;collapsible=0;dropTarget=0;points=[[0,0.5],[1,0.5]];portConstraint=eastwest;top=0;left=0;right=0;bottom=0;" vertex="1" parent="W6JMrzAl0BDulRiqm-cF-23">
          <mxGeometry y="120" width="240" height="30" as="geometry" />
        </mxCell>
        <mxCell id="W6JMrzAl0BDulRiqm-cF-34" value="" style="shape=partialRectangle;connectable=0;fillColor=none;top=0;left=0;bottom=0;right=0;editable=1;overflow=hidden;whiteSpace=wrap;html=1;" vertex="1" parent="W6JMrzAl0BDulRiqm-cF-33">
          <mxGeometry width="30" height="30" as="geometry">
            <mxRectangle width="30" height="30" as="alternateBounds" />
          </mxGeometry>
        </mxCell>
        <mxCell id="W6JMrzAl0BDulRiqm-cF-35" value="&lt;span style=&quot;text-wrap: nowrap; font-family: Verdana;&quot;&gt;email&lt;/span&gt;&lt;span style=&quot;font-family: Verdana; white-space: pre;&quot;&gt;&#x9;&lt;/span&gt;&lt;span style=&quot;font-family: Verdana; white-space: pre;&quot;&gt;&#x9;&lt;/span&gt;&lt;span style=&quot;text-wrap: nowrap; font-family: Verdana;&quot;&gt;VARCHAR(100)&lt;/span&gt;" style="shape=partialRectangle;connectable=0;fillColor=none;top=0;left=0;bottom=0;right=0;align=left;spacingLeft=6;overflow=hidden;whiteSpace=wrap;html=1;" vertex="1" parent="W6JMrzAl0BDulRiqm-cF-33">
          <mxGeometry x="30" width="210" height="30" as="geometry">
            <mxRectangle width="210" height="30" as="alternateBounds" />
          </mxGeometry>
        </mxCell>
        <mxCell id="W6JMrzAl0BDulRiqm-cF-36" value="" style="shape=tableRow;horizontal=0;startSize=0;swimlaneHead=0;swimlaneBody=0;fillColor=none;collapsible=0;dropTarget=0;points=[[0,0.5],[1,0.5]];portConstraint=eastwest;top=0;left=0;right=0;bottom=0;" vertex="1" parent="W6JMrzAl0BDulRiqm-cF-23">
          <mxGeometry y="150" width="240" height="30" as="geometry" />
        </mxCell>
        <mxCell id="W6JMrzAl0BDulRiqm-cF-37" value="" style="shape=partialRectangle;connectable=0;fillColor=none;top=0;left=0;bottom=0;right=0;editable=1;overflow=hidden;whiteSpace=wrap;html=1;" vertex="1" parent="W6JMrzAl0BDulRiqm-cF-36">
          <mxGeometry width="30" height="30" as="geometry">
            <mxRectangle width="30" height="30" as="alternateBounds" />
          </mxGeometry>
        </mxCell>
        <mxCell id="W6JMrzAl0BDulRiqm-cF-38" value="&lt;span style=&quot;text-wrap: nowrap; font-family: Verdana;&quot;&gt;phone&lt;/span&gt;&lt;span style=&quot;font-family: Verdana; white-space: pre;&quot;&gt;&#x9;&lt;/span&gt;&lt;span style=&quot;font-family: Verdana; white-space: pre;&quot;&gt;&#x9;&lt;/span&gt;&lt;span style=&quot;text-wrap: nowrap; font-family: Verdana;&quot;&gt;VARCHAR(20)&lt;/span&gt;" style="shape=partialRectangle;connectable=0;fillColor=none;top=0;left=0;bottom=0;right=0;align=left;spacingLeft=6;overflow=hidden;whiteSpace=wrap;html=1;" vertex="1" parent="W6JMrzAl0BDulRiqm-cF-36">
          <mxGeometry x="30" width="210" height="30" as="geometry">
            <mxRectangle width="210" height="30" as="alternateBounds" />
          </mxGeometry>
        </mxCell>
        <mxCell id="W6JMrzAl0BDulRiqm-cF-55" value="" style="shape=tableRow;horizontal=0;startSize=0;swimlaneHead=0;swimlaneBody=0;fillColor=none;collapsible=0;dropTarget=0;points=[[0,0.5],[1,0.5]];portConstraint=eastwest;top=0;left=0;right=0;bottom=0;" vertex="1" parent="W6JMrzAl0BDulRiqm-cF-23">
          <mxGeometry y="180" width="240" height="30" as="geometry" />
        </mxCell>
        <mxCell id="W6JMrzAl0BDulRiqm-cF-56" value="" style="shape=partialRectangle;connectable=0;fillColor=none;top=0;left=0;bottom=0;right=0;editable=1;overflow=hidden;whiteSpace=wrap;html=1;" vertex="1" parent="W6JMrzAl0BDulRiqm-cF-55">
          <mxGeometry width="30" height="30" as="geometry">
            <mxRectangle width="30" height="30" as="alternateBounds" />
          </mxGeometry>
        </mxCell>
        <mxCell id="W6JMrzAl0BDulRiqm-cF-57" value="&lt;span style=&quot;text-wrap: nowrap; font-family: Verdana;&quot;&gt;created_at&lt;span style=&quot;white-space-collapse: preserve;&quot;&gt;&#x9;&lt;/span&gt;&lt;span style=&quot;white-space-collapse: preserve;&quot;&gt;&#x9;&lt;/span&gt;&lt;/span&gt;&lt;span style=&quot;text-wrap: nowrap; font-family: Verdana;&quot;&gt;DATETIME&lt;/span&gt;" style="shape=partialRectangle;connectable=0;fillColor=none;top=0;left=0;bottom=0;right=0;align=left;spacingLeft=6;overflow=hidden;whiteSpace=wrap;html=1;" vertex="1" parent="W6JMrzAl0BDulRiqm-cF-55">
          <mxGeometry x="30" width="210" height="30" as="geometry">
            <mxRectangle width="210" height="30" as="alternateBounds" />
          </mxGeometry>
        </mxCell>
        <mxCell id="W6JMrzAl0BDulRiqm-cF-77" value="&lt;span style=&quot;font-family: Verdana; text-align: left;&quot;&gt;&lt;font style=&quot;&quot; color=&quot;#ffffff&quot;&gt;Orders&lt;/font&gt;&lt;/span&gt;" style="shape=table;startSize=30;container=1;collapsible=1;childLayout=tableLayout;fixedRows=1;rowLines=0;fontStyle=1;align=center;resizeLast=1;html=1;fillColor=#6666FF;" vertex="1" parent="1">
          <mxGeometry x="630" y="-850" width="400" height="270" as="geometry" />
        </mxCell>
        <mxCell id="W6JMrzAl0BDulRiqm-cF-78" value="" style="shape=tableRow;horizontal=0;startSize=0;swimlaneHead=0;swimlaneBody=0;fillColor=none;collapsible=0;dropTarget=0;points=[[0,0.5],[1,0.5]];portConstraint=eastwest;top=0;left=0;right=0;bottom=1;" vertex="1" parent="W6JMrzAl0BDulRiqm-cF-77">
          <mxGeometry y="30" width="400" height="30" as="geometry" />
        </mxCell>
        <mxCell id="W6JMrzAl0BDulRiqm-cF-79" value="PK" style="shape=partialRectangle;connectable=0;fillColor=none;top=0;left=0;bottom=0;right=0;fontStyle=1;overflow=hidden;whiteSpace=wrap;html=1;" vertex="1" parent="W6JMrzAl0BDulRiqm-cF-78">
          <mxGeometry width="30" height="30" as="geometry">
            <mxRectangle width="30" height="30" as="alternateBounds" />
          </mxGeometry>
        </mxCell>
        <mxCell id="W6JMrzAl0BDulRiqm-cF-80" value="&lt;span style=&quot;font-family: Verdana; text-wrap: nowrap;&quot;&gt;order_id&lt;/span&gt;&lt;span style=&quot;text-wrap: nowrap; font-family: Verdana;&quot;&gt;&lt;span style=&quot;white-space-collapse: preserve;&quot;&gt;&#x9;&lt;span style=&quot;white-space-collapse: preserve;&quot;&gt;&#x9;&lt;/span&gt;&lt;/span&gt;&lt;/span&gt;&lt;span style=&quot;text-wrap: nowrap; font-family: Verdana;&quot;&gt;INT&lt;/span&gt;" style="shape=partialRectangle;connectable=0;fillColor=none;top=0;left=0;bottom=0;right=0;align=left;spacingLeft=6;fontStyle=5;overflow=hidden;whiteSpace=wrap;html=1;" vertex="1" parent="W6JMrzAl0BDulRiqm-cF-78">
          <mxGeometry x="30" width="370" height="30" as="geometry">
            <mxRectangle width="370" height="30" as="alternateBounds" />
          </mxGeometry>
        </mxCell>
        <mxCell id="W6JMrzAl0BDulRiqm-cF-81" value="" style="shape=tableRow;horizontal=0;startSize=0;swimlaneHead=0;swimlaneBody=0;fillColor=none;collapsible=0;dropTarget=0;points=[[0,0.5],[1,0.5]];portConstraint=eastwest;top=0;left=0;right=0;bottom=0;" vertex="1" parent="W6JMrzAl0BDulRiqm-cF-77">
          <mxGeometry y="60" width="400" height="30" as="geometry" />
        </mxCell>
        <mxCell id="W6JMrzAl0BDulRiqm-cF-82" value="" style="shape=partialRectangle;connectable=0;fillColor=none;top=0;left=0;bottom=0;right=0;editable=1;overflow=hidden;whiteSpace=wrap;html=1;" vertex="1" parent="W6JMrzAl0BDulRiqm-cF-81">
          <mxGeometry width="30" height="30" as="geometry">
            <mxRectangle width="30" height="30" as="alternateBounds" />
          </mxGeometry>
        </mxCell>
        <mxCell id="W6JMrzAl0BDulRiqm-cF-83" value="&lt;span style=&quot;font-family: Verdana; text-wrap: nowrap;&quot;&gt;order_date&lt;/span&gt;&lt;span style=&quot;font-family: Verdana; white-space: pre;&quot;&gt;&lt;span style=&quot;white-space: pre;&quot;&gt;&#x9;&lt;/span&gt;&lt;/span&gt;&lt;span style=&quot;text-wrap: nowrap; font-family: Verdana;&quot;&gt;VARCHAR(50)&lt;/span&gt;" style="shape=partialRectangle;connectable=0;fillColor=none;top=0;left=0;bottom=0;right=0;align=left;spacingLeft=6;overflow=hidden;whiteSpace=wrap;html=1;" vertex="1" parent="W6JMrzAl0BDulRiqm-cF-81">
          <mxGeometry x="30" width="370" height="30" as="geometry">
            <mxRectangle width="370" height="30" as="alternateBounds" />
          </mxGeometry>
        </mxCell>
        <mxCell id="W6JMrzAl0BDulRiqm-cF-84" value="" style="shape=tableRow;horizontal=0;startSize=0;swimlaneHead=0;swimlaneBody=0;fillColor=none;collapsible=0;dropTarget=0;points=[[0,0.5],[1,0.5]];portConstraint=eastwest;top=0;left=0;right=0;bottom=0;" vertex="1" parent="W6JMrzAl0BDulRiqm-cF-77">
          <mxGeometry y="90" width="400" height="30" as="geometry" />
        </mxCell>
        <mxCell id="W6JMrzAl0BDulRiqm-cF-85" value="" style="shape=partialRectangle;connectable=0;fillColor=none;top=0;left=0;bottom=0;right=0;editable=1;overflow=hidden;whiteSpace=wrap;html=1;" vertex="1" parent="W6JMrzAl0BDulRiqm-cF-84">
          <mxGeometry width="30" height="30" as="geometry">
            <mxRectangle width="30" height="30" as="alternateBounds" />
          </mxGeometry>
        </mxCell>
        <mxCell id="W6JMrzAl0BDulRiqm-cF-86" value="&lt;span style=&quot;text-wrap: nowrap; font-family: Verdana;&quot;&gt;last_name&lt;span style=&quot;white-space-collapse: preserve;&quot;&gt;&#x9;&lt;/span&gt;&lt;span style=&quot;white-space-collapse: preserve;&quot;&gt;&#x9;&lt;/span&gt;&lt;/span&gt;&lt;span style=&quot;text-wrap: nowrap; font-family: Verdana;&quot;&gt;VARCHAR(50)&lt;/span&gt;" style="shape=partialRectangle;connectable=0;fillColor=none;top=0;left=0;bottom=0;right=0;align=left;spacingLeft=6;overflow=hidden;whiteSpace=wrap;html=1;" vertex="1" parent="W6JMrzAl0BDulRiqm-cF-84">
          <mxGeometry x="30" width="370" height="30" as="geometry">
            <mxRectangle width="370" height="30" as="alternateBounds" />
          </mxGeometry>
        </mxCell>
        <mxCell id="W6JMrzAl0BDulRiqm-cF-87" value="" style="shape=tableRow;horizontal=0;startSize=0;swimlaneHead=0;swimlaneBody=0;fillColor=none;collapsible=0;dropTarget=0;points=[[0,0.5],[1,0.5]];portConstraint=eastwest;top=0;left=0;right=0;bottom=0;" vertex="1" parent="W6JMrzAl0BDulRiqm-cF-77">
          <mxGeometry y="120" width="400" height="30" as="geometry" />
        </mxCell>
        <mxCell id="W6JMrzAl0BDulRiqm-cF-88" value="" style="shape=partialRectangle;connectable=0;fillColor=none;top=0;left=0;bottom=0;right=0;editable=1;overflow=hidden;whiteSpace=wrap;html=1;" vertex="1" parent="W6JMrzAl0BDulRiqm-cF-87">
          <mxGeometry width="30" height="30" as="geometry">
            <mxRectangle width="30" height="30" as="alternateBounds" />
          </mxGeometry>
        </mxCell>
        <mxCell id="W6JMrzAl0BDulRiqm-cF-89" value="&lt;span style=&quot;font-family: Verdana; text-wrap: nowrap;&quot;&gt;DATETIME&lt;/span&gt;&lt;span style=&quot;font-family: Verdana; white-space: pre;&quot;&gt;&#x9;&lt;/span&gt;&lt;span style=&quot;font-family: Verdana; white-space: pre;&quot;&gt;&#x9;&lt;/span&gt;&lt;span style=&quot;font-family: Verdana; text-wrap: nowrap;&quot;&gt;DATETIME&lt;/span&gt;" style="shape=partialRectangle;connectable=0;fillColor=none;top=0;left=0;bottom=0;right=0;align=left;spacingLeft=6;overflow=hidden;whiteSpace=wrap;html=1;" vertex="1" parent="W6JMrzAl0BDulRiqm-cF-87">
          <mxGeometry x="30" width="370" height="30" as="geometry">
            <mxRectangle width="370" height="30" as="alternateBounds" />
          </mxGeometry>
        </mxCell>
        <mxCell id="W6JMrzAl0BDulRiqm-cF-90" value="" style="shape=tableRow;horizontal=0;startSize=0;swimlaneHead=0;swimlaneBody=0;fillColor=none;collapsible=0;dropTarget=0;points=[[0,0.5],[1,0.5]];portConstraint=eastwest;top=0;left=0;right=0;bottom=0;" vertex="1" parent="W6JMrzAl0BDulRiqm-cF-77">
          <mxGeometry y="150" width="400" height="30" as="geometry" />
        </mxCell>
        <mxCell id="W6JMrzAl0BDulRiqm-cF-91" value="" style="shape=partialRectangle;connectable=0;fillColor=none;top=0;left=0;bottom=0;right=0;editable=1;overflow=hidden;whiteSpace=wrap;html=1;" vertex="1" parent="W6JMrzAl0BDulRiqm-cF-90">
          <mxGeometry width="30" height="30" as="geometry">
            <mxRectangle width="30" height="30" as="alternateBounds" />
          </mxGeometry>
        </mxCell>
        <mxCell id="W6JMrzAl0BDulRiqm-cF-92" value="&lt;span style=&quot;font-family: Verdana; text-wrap: nowrap;&quot;&gt;total_amount&lt;/span&gt;&lt;span style=&quot;font-family: Verdana; white-space: pre;&quot;&gt;&#x9;&lt;/span&gt;&lt;span style=&quot;font-family: Verdana; text-wrap: nowrap;&quot;&gt;DECIMAL(10,2)&lt;/span&gt;" style="shape=partialRectangle;connectable=0;fillColor=none;top=0;left=0;bottom=0;right=0;align=left;spacingLeft=6;overflow=hidden;whiteSpace=wrap;html=1;" vertex="1" parent="W6JMrzAl0BDulRiqm-cF-90">
          <mxGeometry x="30" width="370" height="30" as="geometry">
            <mxRectangle width="370" height="30" as="alternateBounds" />
          </mxGeometry>
        </mxCell>
        <mxCell id="W6JMrzAl0BDulRiqm-cF-93" value="" style="shape=tableRow;horizontal=0;startSize=0;swimlaneHead=0;swimlaneBody=0;fillColor=none;collapsible=0;dropTarget=0;points=[[0,0.5],[1,0.5]];portConstraint=eastwest;top=0;left=0;right=0;bottom=0;" vertex="1" parent="W6JMrzAl0BDulRiqm-cF-77">
          <mxGeometry y="180" width="400" height="30" as="geometry" />
        </mxCell>
        <mxCell id="W6JMrzAl0BDulRiqm-cF-94" value="" style="shape=partialRectangle;connectable=0;fillColor=none;top=0;left=0;bottom=0;right=0;editable=1;overflow=hidden;whiteSpace=wrap;html=1;" vertex="1" parent="W6JMrzAl0BDulRiqm-cF-93">
          <mxGeometry width="30" height="30" as="geometry">
            <mxRectangle width="30" height="30" as="alternateBounds" />
          </mxGeometry>
        </mxCell>
        <mxCell id="W6JMrzAl0BDulRiqm-cF-95" value="&lt;span style=&quot;font-family: Verdana; text-wrap: nowrap;&quot;&gt;status&lt;/span&gt;&lt;span style=&quot;text-wrap: nowrap; font-family: Verdana;&quot;&gt;&lt;span style=&quot;white-space-collapse: preserve;&quot;&gt;&#x9;&lt;/span&gt;&lt;span style=&quot;white-space-collapse: preserve;&quot;&gt;&#x9;&lt;/span&gt;&lt;/span&gt;&lt;span style=&quot;font-family: Verdana; text-wrap: nowrap;&quot;&gt;ENUM&amp;nbsp;&lt;/span&gt;&lt;span style=&quot;font-family: Verdana; text-wrap: nowrap;&quot;&gt;(&#39;pending&#39;, &#39;completed&#39;, &#39;canceled&#39;)&lt;/span&gt;" style="shape=partialRectangle;connectable=0;fillColor=none;top=0;left=0;bottom=0;right=0;align=left;spacingLeft=6;overflow=hidden;whiteSpace=wrap;html=1;" vertex="1" parent="W6JMrzAl0BDulRiqm-cF-93">
          <mxGeometry x="30" width="370" height="30" as="geometry">
            <mxRectangle width="370" height="30" as="alternateBounds" />
          </mxGeometry>
        </mxCell>
        <mxCell id="W6JMrzAl0BDulRiqm-cF-99" value="" style="shape=tableRow;horizontal=0;startSize=0;swimlaneHead=0;swimlaneBody=0;fillColor=none;collapsible=0;dropTarget=0;points=[[0,0.5],[1,0.5]];portConstraint=eastwest;top=0;left=0;right=0;bottom=0;" vertex="1" parent="W6JMrzAl0BDulRiqm-cF-77">
          <mxGeometry y="210" width="400" height="30" as="geometry" />
        </mxCell>
        <mxCell id="W6JMrzAl0BDulRiqm-cF-100" value="FK1" style="shape=partialRectangle;connectable=0;fillColor=none;top=0;left=0;bottom=0;right=0;editable=1;overflow=hidden;whiteSpace=wrap;html=1;fontStyle=1" vertex="1" parent="W6JMrzAl0BDulRiqm-cF-99">
          <mxGeometry width="30" height="30" as="geometry">
            <mxRectangle width="30" height="30" as="alternateBounds" />
          </mxGeometry>
        </mxCell>
        <mxCell id="W6JMrzAl0BDulRiqm-cF-101" value="&lt;span style=&quot;font-family: Verdana; text-wrap: nowrap;&quot;&gt;restaurant_id&lt;/span&gt;&lt;span style=&quot;text-wrap: nowrap; font-family: Verdana;&quot;&gt;&lt;span style=&quot;white-space-collapse: preserve;&quot;&gt;&#x9;&lt;/span&gt;&lt;span style=&quot;white-space-collapse: preserve;&quot;&gt;&#x9;&lt;/span&gt;&lt;/span&gt;&lt;span style=&quot;text-wrap: nowrap; font-family: Verdana;&quot;&gt;INT&lt;/span&gt;" style="shape=partialRectangle;connectable=0;fillColor=none;top=0;left=0;bottom=0;right=0;align=left;spacingLeft=6;overflow=hidden;whiteSpace=wrap;html=1;fontStyle=1" vertex="1" parent="W6JMrzAl0BDulRiqm-cF-99">
          <mxGeometry x="30" width="370" height="30" as="geometry">
            <mxRectangle width="370" height="30" as="alternateBounds" />
          </mxGeometry>
        </mxCell>
        <mxCell id="W6JMrzAl0BDulRiqm-cF-102" value="" style="shape=tableRow;horizontal=0;startSize=0;swimlaneHead=0;swimlaneBody=0;fillColor=none;collapsible=0;dropTarget=0;points=[[0,0.5],[1,0.5]];portConstraint=eastwest;top=0;left=0;right=0;bottom=0;" vertex="1" parent="W6JMrzAl0BDulRiqm-cF-77">
          <mxGeometry y="240" width="400" height="30" as="geometry" />
        </mxCell>
        <mxCell id="W6JMrzAl0BDulRiqm-cF-103" value="FK2" style="shape=partialRectangle;connectable=0;fillColor=none;top=0;left=0;bottom=0;right=0;editable=1;overflow=hidden;whiteSpace=wrap;html=1;fontStyle=1" vertex="1" parent="W6JMrzAl0BDulRiqm-cF-102">
          <mxGeometry width="30" height="30" as="geometry">
            <mxRectangle width="30" height="30" as="alternateBounds" />
          </mxGeometry>
        </mxCell>
        <mxCell id="W6JMrzAl0BDulRiqm-cF-104" value="&lt;span style=&quot;font-family: Verdana; text-wrap: nowrap;&quot;&gt;user_id&lt;span style=&quot;font-weight: 400; white-space: pre;&quot;&gt;&#x9;&lt;/span&gt;&lt;/span&gt;&lt;span style=&quot;text-wrap: nowrap; font-family: Verdana;&quot;&gt;&lt;span style=&quot;white-space-collapse: preserve;&quot;&gt;&#x9;&lt;/span&gt;&lt;span style=&quot;white-space-collapse: preserve;&quot;&gt;&#x9;&lt;/span&gt;&lt;/span&gt;&lt;span style=&quot;text-wrap: nowrap; font-family: Verdana;&quot;&gt;INT&lt;/span&gt;" style="shape=partialRectangle;connectable=0;fillColor=none;top=0;left=0;bottom=0;right=0;align=left;spacingLeft=6;overflow=hidden;whiteSpace=wrap;html=1;fontStyle=1" vertex="1" parent="W6JMrzAl0BDulRiqm-cF-102">
          <mxGeometry x="30" width="370" height="30" as="geometry">
            <mxRectangle width="370" height="30" as="alternateBounds" />
          </mxGeometry>
        </mxCell>
        <mxCell id="W6JMrzAl0BDulRiqm-cF-105" value="&lt;span style=&quot;font-family: Verdana; text-align: left;&quot;&gt;&lt;font style=&quot;&quot; color=&quot;#ffffff&quot;&gt;Menu_Items&lt;/font&gt;&lt;/span&gt;" style="shape=table;startSize=30;container=1;collapsible=1;childLayout=tableLayout;fixedRows=1;rowLines=0;fontStyle=1;align=center;resizeLast=1;html=1;fillColor=#6666FF;" vertex="1" parent="1">
          <mxGeometry x="360" y="-230" width="445" height="240" as="geometry" />
        </mxCell>
        <mxCell id="W6JMrzAl0BDulRiqm-cF-106" value="" style="shape=tableRow;horizontal=0;startSize=0;swimlaneHead=0;swimlaneBody=0;fillColor=none;collapsible=0;dropTarget=0;points=[[0,0.5],[1,0.5]];portConstraint=eastwest;top=0;left=0;right=0;bottom=1;" vertex="1" parent="W6JMrzAl0BDulRiqm-cF-105">
          <mxGeometry y="30" width="445" height="30" as="geometry" />
        </mxCell>
        <mxCell id="W6JMrzAl0BDulRiqm-cF-107" value="PK" style="shape=partialRectangle;connectable=0;fillColor=none;top=0;left=0;bottom=0;right=0;fontStyle=1;overflow=hidden;whiteSpace=wrap;html=1;" vertex="1" parent="W6JMrzAl0BDulRiqm-cF-106">
          <mxGeometry width="30" height="30" as="geometry">
            <mxRectangle width="30" height="30" as="alternateBounds" />
          </mxGeometry>
        </mxCell>
        <mxCell id="W6JMrzAl0BDulRiqm-cF-108" value="&lt;span style=&quot;text-wrap: nowrap; font-family: Verdana;&quot;&gt;item_id&lt;span style=&quot;white-space-collapse: preserve;&quot;&gt;&#x9;&lt;span style=&quot;white-space-collapse: preserve;&quot;&gt;&#x9;&lt;/span&gt;&lt;/span&gt;&lt;/span&gt;&lt;span style=&quot;text-wrap: nowrap; font-family: Verdana;&quot;&gt;INT&lt;/span&gt;" style="shape=partialRectangle;connectable=0;fillColor=none;top=0;left=0;bottom=0;right=0;align=left;spacingLeft=6;fontStyle=5;overflow=hidden;whiteSpace=wrap;html=1;" vertex="1" parent="W6JMrzAl0BDulRiqm-cF-106">
          <mxGeometry x="30" width="415" height="30" as="geometry">
            <mxRectangle width="415" height="30" as="alternateBounds" />
          </mxGeometry>
        </mxCell>
        <mxCell id="W6JMrzAl0BDulRiqm-cF-109" value="" style="shape=tableRow;horizontal=0;startSize=0;swimlaneHead=0;swimlaneBody=0;fillColor=none;collapsible=0;dropTarget=0;points=[[0,0.5],[1,0.5]];portConstraint=eastwest;top=0;left=0;right=0;bottom=0;" vertex="1" parent="W6JMrzAl0BDulRiqm-cF-105">
          <mxGeometry y="60" width="445" height="30" as="geometry" />
        </mxCell>
        <mxCell id="W6JMrzAl0BDulRiqm-cF-110" value="" style="shape=partialRectangle;connectable=0;fillColor=none;top=0;left=0;bottom=0;right=0;editable=1;overflow=hidden;whiteSpace=wrap;html=1;" vertex="1" parent="W6JMrzAl0BDulRiqm-cF-109">
          <mxGeometry width="30" height="30" as="geometry">
            <mxRectangle width="30" height="30" as="alternateBounds" />
          </mxGeometry>
        </mxCell>
        <mxCell id="W6JMrzAl0BDulRiqm-cF-111" value="&lt;span style=&quot;text-wrap: nowrap; font-family: Verdana;&quot;&gt;name&lt;/span&gt;&lt;span style=&quot;font-family: Verdana; white-space: pre;&quot;&gt;&#x9;&lt;span style=&quot;white-space: pre;&quot;&gt;&#x9;&lt;/span&gt;&lt;/span&gt;&lt;span style=&quot;text-wrap: nowrap; font-family: Verdana;&quot;&gt;VARCHAR(100)&lt;/span&gt;" style="shape=partialRectangle;connectable=0;fillColor=none;top=0;left=0;bottom=0;right=0;align=left;spacingLeft=6;overflow=hidden;whiteSpace=wrap;html=1;" vertex="1" parent="W6JMrzAl0BDulRiqm-cF-109">
          <mxGeometry x="30" width="415" height="30" as="geometry">
            <mxRectangle width="415" height="30" as="alternateBounds" />
          </mxGeometry>
        </mxCell>
        <mxCell id="W6JMrzAl0BDulRiqm-cF-112" value="" style="shape=tableRow;horizontal=0;startSize=0;swimlaneHead=0;swimlaneBody=0;fillColor=none;collapsible=0;dropTarget=0;points=[[0,0.5],[1,0.5]];portConstraint=eastwest;top=0;left=0;right=0;bottom=0;" vertex="1" parent="W6JMrzAl0BDulRiqm-cF-105">
          <mxGeometry y="90" width="445" height="30" as="geometry" />
        </mxCell>
        <mxCell id="W6JMrzAl0BDulRiqm-cF-113" value="" style="shape=partialRectangle;connectable=0;fillColor=none;top=0;left=0;bottom=0;right=0;editable=1;overflow=hidden;whiteSpace=wrap;html=1;" vertex="1" parent="W6JMrzAl0BDulRiqm-cF-112">
          <mxGeometry width="30" height="30" as="geometry">
            <mxRectangle width="30" height="30" as="alternateBounds" />
          </mxGeometry>
        </mxCell>
        <mxCell id="W6JMrzAl0BDulRiqm-cF-114" value="&lt;span style=&quot;font-family: Verdana; text-wrap: nowrap;&quot;&gt;description&lt;/span&gt;&lt;span style=&quot;text-wrap: nowrap; font-family: Verdana;&quot;&gt;&lt;span style=&quot;white-space-collapse: preserve;&quot;&gt;&#x9;&lt;/span&gt;TEXT&lt;/span&gt;" style="shape=partialRectangle;connectable=0;fillColor=none;top=0;left=0;bottom=0;right=0;align=left;spacingLeft=6;overflow=hidden;whiteSpace=wrap;html=1;" vertex="1" parent="W6JMrzAl0BDulRiqm-cF-112">
          <mxGeometry x="30" width="415" height="30" as="geometry">
            <mxRectangle width="415" height="30" as="alternateBounds" />
          </mxGeometry>
        </mxCell>
        <mxCell id="W6JMrzAl0BDulRiqm-cF-115" value="" style="shape=tableRow;horizontal=0;startSize=0;swimlaneHead=0;swimlaneBody=0;fillColor=none;collapsible=0;dropTarget=0;points=[[0,0.5],[1,0.5]];portConstraint=eastwest;top=0;left=0;right=0;bottom=0;" vertex="1" parent="W6JMrzAl0BDulRiqm-cF-105">
          <mxGeometry y="120" width="445" height="30" as="geometry" />
        </mxCell>
        <mxCell id="W6JMrzAl0BDulRiqm-cF-116" value="" style="shape=partialRectangle;connectable=0;fillColor=none;top=0;left=0;bottom=0;right=0;editable=1;overflow=hidden;whiteSpace=wrap;html=1;" vertex="1" parent="W6JMrzAl0BDulRiqm-cF-115">
          <mxGeometry width="30" height="30" as="geometry">
            <mxRectangle width="30" height="30" as="alternateBounds" />
          </mxGeometry>
        </mxCell>
        <mxCell id="W6JMrzAl0BDulRiqm-cF-117" value="&lt;span style=&quot;font-family: Verdana; text-wrap: nowrap;&quot;&gt;total_amount&lt;/span&gt;&lt;span style=&quot;font-family: Verdana; white-space: pre;&quot;&gt;&#x9;&lt;/span&gt;&lt;span style=&quot;font-family: Verdana; text-wrap: nowrap;&quot;&gt;DECIMAL(10,2)&lt;/span&gt;" style="shape=partialRectangle;connectable=0;fillColor=none;top=0;left=0;bottom=0;right=0;align=left;spacingLeft=6;overflow=hidden;whiteSpace=wrap;html=1;" vertex="1" parent="W6JMrzAl0BDulRiqm-cF-115">
          <mxGeometry x="30" width="415" height="30" as="geometry">
            <mxRectangle width="415" height="30" as="alternateBounds" />
          </mxGeometry>
        </mxCell>
        <mxCell id="W6JMrzAl0BDulRiqm-cF-118" value="" style="shape=tableRow;horizontal=0;startSize=0;swimlaneHead=0;swimlaneBody=0;fillColor=none;collapsible=0;dropTarget=0;points=[[0,0.5],[1,0.5]];portConstraint=eastwest;top=0;left=0;right=0;bottom=0;" vertex="1" parent="W6JMrzAl0BDulRiqm-cF-105">
          <mxGeometry y="150" width="445" height="30" as="geometry" />
        </mxCell>
        <mxCell id="W6JMrzAl0BDulRiqm-cF-119" value="" style="shape=partialRectangle;connectable=0;fillColor=none;top=0;left=0;bottom=0;right=0;editable=1;overflow=hidden;whiteSpace=wrap;html=1;" vertex="1" parent="W6JMrzAl0BDulRiqm-cF-118">
          <mxGeometry width="30" height="30" as="geometry">
            <mxRectangle width="30" height="30" as="alternateBounds" />
          </mxGeometry>
        </mxCell>
        <mxCell id="W6JMrzAl0BDulRiqm-cF-120" value="&lt;span style=&quot;font-family: Verdana; text-wrap: nowrap;&quot;&gt;price&lt;span style=&quot;white-space: pre;&quot;&gt;&#x9;&lt;/span&gt;&lt;/span&gt;&lt;span style=&quot;font-family: Verdana; white-space: pre;&quot;&gt;&#x9;&lt;/span&gt;&lt;span style=&quot;font-family: Verdana; white-space: pre;&quot;&gt;&#x9;&lt;/span&gt;&lt;span style=&quot;font-family: Verdana; text-wrap: nowrap;&quot;&gt;DECIMAL(10,2)&lt;/span&gt;" style="shape=partialRectangle;connectable=0;fillColor=none;top=0;left=0;bottom=0;right=0;align=left;spacingLeft=6;overflow=hidden;whiteSpace=wrap;html=1;" vertex="1" parent="W6JMrzAl0BDulRiqm-cF-118">
          <mxGeometry x="30" width="415" height="30" as="geometry">
            <mxRectangle width="415" height="30" as="alternateBounds" />
          </mxGeometry>
        </mxCell>
        <mxCell id="W6JMrzAl0BDulRiqm-cF-121" value="" style="shape=tableRow;horizontal=0;startSize=0;swimlaneHead=0;swimlaneBody=0;fillColor=none;collapsible=0;dropTarget=0;points=[[0,0.5],[1,0.5]];portConstraint=eastwest;top=0;left=0;right=0;bottom=0;" vertex="1" parent="W6JMrzAl0BDulRiqm-cF-105">
          <mxGeometry y="180" width="445" height="30" as="geometry" />
        </mxCell>
        <mxCell id="W6JMrzAl0BDulRiqm-cF-122" value="" style="shape=partialRectangle;connectable=0;fillColor=none;top=0;left=0;bottom=0;right=0;editable=1;overflow=hidden;whiteSpace=wrap;html=1;" vertex="1" parent="W6JMrzAl0BDulRiqm-cF-121">
          <mxGeometry width="30" height="30" as="geometry">
            <mxRectangle width="30" height="30" as="alternateBounds" />
          </mxGeometry>
        </mxCell>
        <mxCell id="W6JMrzAl0BDulRiqm-cF-123" value="&lt;span style=&quot;font-family: Verdana; text-wrap: nowrap;&quot;&gt;category&amp;nbsp;&lt;/span&gt;&lt;span style=&quot;font-family: Verdana; white-space: pre;&quot;&gt;&#x9;&lt;/span&gt;&lt;span style=&quot;font-family: Verdana; white-space: pre;&quot;&gt;&#x9;&lt;/span&gt;&lt;span style=&quot;font-family: Verdana; text-wrap: nowrap;&quot;&gt;ENUM&amp;nbsp;&lt;/span&gt;&lt;span style=&quot;font-family: Verdana; text-wrap: nowrap;&quot;&gt;(&#39;appetizer&#39;, &#39;main course&#39;,&lt;/span&gt;&lt;span style=&quot;font-family: Verdana; text-wrap: nowrap;&quot;&gt;&#39;dessert&#39;, &#39;drink&#39;)&lt;/span&gt;" style="shape=partialRectangle;connectable=0;fillColor=none;top=0;left=0;bottom=0;right=0;align=left;spacingLeft=6;overflow=hidden;whiteSpace=wrap;html=1;" vertex="1" parent="W6JMrzAl0BDulRiqm-cF-121">
          <mxGeometry x="30" width="415" height="30" as="geometry">
            <mxRectangle width="415" height="30" as="alternateBounds" />
          </mxGeometry>
        </mxCell>
        <mxCell id="W6JMrzAl0BDulRiqm-cF-124" value="" style="shape=tableRow;horizontal=0;startSize=0;swimlaneHead=0;swimlaneBody=0;fillColor=none;collapsible=0;dropTarget=0;points=[[0,0.5],[1,0.5]];portConstraint=eastwest;top=0;left=0;right=0;bottom=0;" vertex="1" parent="W6JMrzAl0BDulRiqm-cF-105">
          <mxGeometry y="210" width="445" height="30" as="geometry" />
        </mxCell>
        <mxCell id="W6JMrzAl0BDulRiqm-cF-125" value="FK" style="shape=partialRectangle;connectable=0;fillColor=none;top=0;left=0;bottom=0;right=0;editable=1;overflow=hidden;whiteSpace=wrap;html=1;fontStyle=1" vertex="1" parent="W6JMrzAl0BDulRiqm-cF-124">
          <mxGeometry width="30" height="30" as="geometry">
            <mxRectangle width="30" height="30" as="alternateBounds" />
          </mxGeometry>
        </mxCell>
        <mxCell id="W6JMrzAl0BDulRiqm-cF-126" value="&lt;span style=&quot;font-family: Verdana; text-wrap: nowrap;&quot;&gt;restaurant_id&lt;/span&gt;&lt;span style=&quot;font-family: Verdana; text-wrap: nowrap;&quot;&gt;&amp;nbsp;&lt;/span&gt;&lt;span style=&quot;font-family: Verdana; white-space: pre;&quot;&gt;&#x9;&lt;/span&gt;INT" style="shape=partialRectangle;connectable=0;fillColor=none;top=0;left=0;bottom=0;right=0;align=left;spacingLeft=6;overflow=hidden;whiteSpace=wrap;html=1;fontStyle=1" vertex="1" parent="W6JMrzAl0BDulRiqm-cF-124">
          <mxGeometry x="30" width="415" height="30" as="geometry">
            <mxRectangle width="415" height="30" as="alternateBounds" />
          </mxGeometry>
        </mxCell>
        <mxCell id="W6JMrzAl0BDulRiqm-cF-127" value="&lt;span style=&quot;font-family: Verdana; text-align: left;&quot;&gt;&lt;font style=&quot;&quot; color=&quot;#ffffff&quot;&gt;Restaurants&lt;/font&gt;&lt;/span&gt;" style="shape=table;startSize=30;container=1;collapsible=1;childLayout=tableLayout;fixedRows=1;rowLines=0;fontStyle=1;align=center;resizeLast=1;html=1;fillColor=#6666FF;" vertex="1" parent="1">
          <mxGeometry x="45" y="-600" width="230" height="210" as="geometry" />
        </mxCell>
        <mxCell id="W6JMrzAl0BDulRiqm-cF-128" value="" style="shape=tableRow;horizontal=0;startSize=0;swimlaneHead=0;swimlaneBody=0;fillColor=none;collapsible=0;dropTarget=0;points=[[0,0.5],[1,0.5]];portConstraint=eastwest;top=0;left=0;right=0;bottom=1;" vertex="1" parent="W6JMrzAl0BDulRiqm-cF-127">
          <mxGeometry y="30" width="230" height="30" as="geometry" />
        </mxCell>
        <mxCell id="W6JMrzAl0BDulRiqm-cF-129" value="PK" style="shape=partialRectangle;connectable=0;fillColor=none;top=0;left=0;bottom=0;right=0;fontStyle=1;overflow=hidden;whiteSpace=wrap;html=1;" vertex="1" parent="W6JMrzAl0BDulRiqm-cF-128">
          <mxGeometry width="30" height="30" as="geometry">
            <mxRectangle width="30" height="30" as="alternateBounds" />
          </mxGeometry>
        </mxCell>
        <mxCell id="W6JMrzAl0BDulRiqm-cF-130" value="&lt;span style=&quot;font-family: Verdana; text-wrap: nowrap;&quot;&gt;restaurant_id&lt;/span&gt;&lt;span style=&quot;text-wrap: nowrap; font-family: Verdana;&quot;&gt;&lt;span style=&quot;white-space-collapse: preserve;&quot;&gt;&#x9;&lt;span style=&quot;white-space-collapse: preserve;&quot;&gt;&#x9;&lt;/span&gt;&lt;/span&gt;&lt;/span&gt;&lt;span style=&quot;text-wrap: nowrap; font-family: Verdana;&quot;&gt;INT&lt;/span&gt;" style="shape=partialRectangle;connectable=0;fillColor=none;top=0;left=0;bottom=0;right=0;align=left;spacingLeft=6;fontStyle=5;overflow=hidden;whiteSpace=wrap;html=1;" vertex="1" parent="W6JMrzAl0BDulRiqm-cF-128">
          <mxGeometry x="30" width="200" height="30" as="geometry">
            <mxRectangle width="200" height="30" as="alternateBounds" />
          </mxGeometry>
        </mxCell>
        <mxCell id="W6JMrzAl0BDulRiqm-cF-131" value="" style="shape=tableRow;horizontal=0;startSize=0;swimlaneHead=0;swimlaneBody=0;fillColor=none;collapsible=0;dropTarget=0;points=[[0,0.5],[1,0.5]];portConstraint=eastwest;top=0;left=0;right=0;bottom=0;" vertex="1" parent="W6JMrzAl0BDulRiqm-cF-127">
          <mxGeometry y="60" width="230" height="30" as="geometry" />
        </mxCell>
        <mxCell id="W6JMrzAl0BDulRiqm-cF-132" value="" style="shape=partialRectangle;connectable=0;fillColor=none;top=0;left=0;bottom=0;right=0;editable=1;overflow=hidden;whiteSpace=wrap;html=1;" vertex="1" parent="W6JMrzAl0BDulRiqm-cF-131">
          <mxGeometry width="30" height="30" as="geometry">
            <mxRectangle width="30" height="30" as="alternateBounds" />
          </mxGeometry>
        </mxCell>
        <mxCell id="W6JMrzAl0BDulRiqm-cF-133" value="&lt;span style=&quot;font-family: Verdana; text-wrap: nowrap;&quot;&gt;name&lt;span style=&quot;white-space: pre;&quot;&gt;&#x9;&lt;/span&gt;&lt;/span&gt;&lt;span style=&quot;font-family: Verdana; white-space: pre;&quot;&gt;&lt;span style=&quot;white-space: pre;&quot;&gt;&#x9;&lt;/span&gt;&lt;/span&gt;&lt;span style=&quot;text-wrap: nowrap; font-family: Verdana;&quot;&gt;VARCHAR(50)&lt;/span&gt;" style="shape=partialRectangle;connectable=0;fillColor=none;top=0;left=0;bottom=0;right=0;align=left;spacingLeft=6;overflow=hidden;whiteSpace=wrap;html=1;" vertex="1" parent="W6JMrzAl0BDulRiqm-cF-131">
          <mxGeometry x="30" width="200" height="30" as="geometry">
            <mxRectangle width="200" height="30" as="alternateBounds" />
          </mxGeometry>
        </mxCell>
        <mxCell id="W6JMrzAl0BDulRiqm-cF-134" value="" style="shape=tableRow;horizontal=0;startSize=0;swimlaneHead=0;swimlaneBody=0;fillColor=none;collapsible=0;dropTarget=0;points=[[0,0.5],[1,0.5]];portConstraint=eastwest;top=0;left=0;right=0;bottom=0;" vertex="1" parent="W6JMrzAl0BDulRiqm-cF-127">
          <mxGeometry y="90" width="230" height="30" as="geometry" />
        </mxCell>
        <mxCell id="W6JMrzAl0BDulRiqm-cF-135" value="" style="shape=partialRectangle;connectable=0;fillColor=none;top=0;left=0;bottom=0;right=0;editable=1;overflow=hidden;whiteSpace=wrap;html=1;" vertex="1" parent="W6JMrzAl0BDulRiqm-cF-134">
          <mxGeometry width="30" height="30" as="geometry">
            <mxRectangle width="30" height="30" as="alternateBounds" />
          </mxGeometry>
        </mxCell>
        <mxCell id="W6JMrzAl0BDulRiqm-cF-136" value="&lt;span style=&quot;text-wrap: nowrap; font-family: Verdana;&quot;&gt;location&lt;span style=&quot;white-space-collapse: preserve;&quot;&gt;&#x9;&lt;/span&gt;&lt;span style=&quot;white-space-collapse: preserve;&quot;&gt;&#x9;&lt;/span&gt;&lt;/span&gt;&lt;span style=&quot;text-wrap: nowrap; font-family: Verdana;&quot;&gt;VARCHAR(50)&lt;/span&gt;" style="shape=partialRectangle;connectable=0;fillColor=none;top=0;left=0;bottom=0;right=0;align=left;spacingLeft=6;overflow=hidden;whiteSpace=wrap;html=1;" vertex="1" parent="W6JMrzAl0BDulRiqm-cF-134">
          <mxGeometry x="30" width="200" height="30" as="geometry">
            <mxRectangle width="200" height="30" as="alternateBounds" />
          </mxGeometry>
        </mxCell>
        <mxCell id="W6JMrzAl0BDulRiqm-cF-140" value="" style="shape=tableRow;horizontal=0;startSize=0;swimlaneHead=0;swimlaneBody=0;fillColor=none;collapsible=0;dropTarget=0;points=[[0,0.5],[1,0.5]];portConstraint=eastwest;top=0;left=0;right=0;bottom=0;" vertex="1" parent="W6JMrzAl0BDulRiqm-cF-127">
          <mxGeometry y="120" width="230" height="30" as="geometry" />
        </mxCell>
        <mxCell id="W6JMrzAl0BDulRiqm-cF-141" value="" style="shape=partialRectangle;connectable=0;fillColor=none;top=0;left=0;bottom=0;right=0;editable=1;overflow=hidden;whiteSpace=wrap;html=1;" vertex="1" parent="W6JMrzAl0BDulRiqm-cF-140">
          <mxGeometry width="30" height="30" as="geometry">
            <mxRectangle width="30" height="30" as="alternateBounds" />
          </mxGeometry>
        </mxCell>
        <mxCell id="W6JMrzAl0BDulRiqm-cF-142" value="&lt;span style=&quot;text-wrap: nowrap; font-family: Verdana;&quot;&gt;contact_info&lt;/span&gt;&lt;span style=&quot;font-family: Verdana; white-space: pre;&quot;&gt;&#x9;&lt;/span&gt;&lt;span style=&quot;text-wrap: nowrap; font-family: Verdana;&quot;&gt;VARCHAR(50)&lt;/span&gt;" style="shape=partialRectangle;connectable=0;fillColor=none;top=0;left=0;bottom=0;right=0;align=left;spacingLeft=6;overflow=hidden;whiteSpace=wrap;html=1;" vertex="1" parent="W6JMrzAl0BDulRiqm-cF-140">
          <mxGeometry x="30" width="200" height="30" as="geometry">
            <mxRectangle width="200" height="30" as="alternateBounds" />
          </mxGeometry>
        </mxCell>
        <mxCell id="W6JMrzAl0BDulRiqm-cF-143" value="" style="shape=tableRow;horizontal=0;startSize=0;swimlaneHead=0;swimlaneBody=0;fillColor=none;collapsible=0;dropTarget=0;points=[[0,0.5],[1,0.5]];portConstraint=eastwest;top=0;left=0;right=0;bottom=0;" vertex="1" parent="W6JMrzAl0BDulRiqm-cF-127">
          <mxGeometry y="150" width="230" height="30" as="geometry" />
        </mxCell>
        <mxCell id="W6JMrzAl0BDulRiqm-cF-144" value="" style="shape=partialRectangle;connectable=0;fillColor=none;top=0;left=0;bottom=0;right=0;editable=1;overflow=hidden;whiteSpace=wrap;html=1;" vertex="1" parent="W6JMrzAl0BDulRiqm-cF-143">
          <mxGeometry width="30" height="30" as="geometry">
            <mxRectangle width="30" height="30" as="alternateBounds" />
          </mxGeometry>
        </mxCell>
        <mxCell id="W6JMrzAl0BDulRiqm-cF-145" value="&lt;span style=&quot;text-wrap: nowrap; font-family: Verdana;&quot;&gt;created_at&lt;/span&gt;&lt;span style=&quot;font-family: Verdana; white-space: pre;&quot;&gt;&#x9;&lt;/span&gt;&lt;span style=&quot;font-family: Verdana; white-space: pre;&quot;&gt;&#x9;&lt;/span&gt;&lt;span style=&quot;text-wrap: nowrap; font-family: Verdana;&quot;&gt;DATETIME&lt;/span&gt;" style="shape=partialRectangle;connectable=0;fillColor=none;top=0;left=0;bottom=0;right=0;align=left;spacingLeft=6;overflow=hidden;whiteSpace=wrap;html=1;" vertex="1" parent="W6JMrzAl0BDulRiqm-cF-143">
          <mxGeometry x="30" width="200" height="30" as="geometry">
            <mxRectangle width="200" height="30" as="alternateBounds" />
          </mxGeometry>
        </mxCell>
        <mxCell id="W6JMrzAl0BDulRiqm-cF-146" value="" style="shape=tableRow;horizontal=0;startSize=0;swimlaneHead=0;swimlaneBody=0;fillColor=none;collapsible=0;dropTarget=0;points=[[0,0.5],[1,0.5]];portConstraint=eastwest;top=0;left=0;right=0;bottom=0;" vertex="1" parent="W6JMrzAl0BDulRiqm-cF-127">
          <mxGeometry y="180" width="230" height="30" as="geometry" />
        </mxCell>
        <mxCell id="W6JMrzAl0BDulRiqm-cF-147" value="FK1" style="shape=partialRectangle;connectable=0;fillColor=none;top=0;left=0;bottom=0;right=0;editable=1;overflow=hidden;whiteSpace=wrap;html=1;fontStyle=1" vertex="1" parent="W6JMrzAl0BDulRiqm-cF-146">
          <mxGeometry width="30" height="30" as="geometry">
            <mxRectangle width="30" height="30" as="alternateBounds" />
          </mxGeometry>
        </mxCell>
        <mxCell id="W6JMrzAl0BDulRiqm-cF-148" value="&lt;span style=&quot;font-family: Verdana; text-wrap: nowrap;&quot;&gt;owner_id&lt;/span&gt;&lt;span style=&quot;text-wrap: nowrap; font-family: Verdana;&quot;&gt;&lt;span style=&quot;white-space-collapse: preserve;&quot;&gt;&#x9;&lt;/span&gt;&lt;span style=&quot;white-space-collapse: preserve;&quot;&gt;&#x9;&lt;/span&gt;&lt;/span&gt;&lt;span style=&quot;text-wrap: nowrap; font-family: Verdana;&quot;&gt;INT&lt;/span&gt;" style="shape=partialRectangle;connectable=0;fillColor=none;top=0;left=0;bottom=0;right=0;align=left;spacingLeft=6;overflow=hidden;whiteSpace=wrap;html=1;fontStyle=1" vertex="1" parent="W6JMrzAl0BDulRiqm-cF-146">
          <mxGeometry x="30" width="200" height="30" as="geometry">
            <mxRectangle width="200" height="30" as="alternateBounds" />
          </mxGeometry>
        </mxCell>
        <mxCell id="W6JMrzAl0BDulRiqm-cF-152" value="&lt;span style=&quot;font-family: Verdana; text-align: left;&quot;&gt;&lt;font style=&quot;&quot; color=&quot;#ffffff&quot;&gt;Inventory&lt;/font&gt;&lt;/span&gt;" style="shape=table;startSize=30;container=1;collapsible=1;childLayout=tableLayout;fixedRows=1;rowLines=0;fontStyle=1;align=center;resizeLast=1;html=1;fillColor=#6666FF;" vertex="1" parent="1">
          <mxGeometry x="35" y="-350" width="240" height="240" as="geometry" />
        </mxCell>
        <mxCell id="W6JMrzAl0BDulRiqm-cF-153" value="" style="shape=tableRow;horizontal=0;startSize=0;swimlaneHead=0;swimlaneBody=0;fillColor=none;collapsible=0;dropTarget=0;points=[[0,0.5],[1,0.5]];portConstraint=eastwest;top=0;left=0;right=0;bottom=1;" vertex="1" parent="W6JMrzAl0BDulRiqm-cF-152">
          <mxGeometry y="30" width="240" height="30" as="geometry" />
        </mxCell>
        <mxCell id="W6JMrzAl0BDulRiqm-cF-154" value="PK" style="shape=partialRectangle;connectable=0;fillColor=none;top=0;left=0;bottom=0;right=0;fontStyle=1;overflow=hidden;whiteSpace=wrap;html=1;" vertex="1" parent="W6JMrzAl0BDulRiqm-cF-153">
          <mxGeometry width="30" height="30" as="geometry">
            <mxRectangle width="30" height="30" as="alternateBounds" />
          </mxGeometry>
        </mxCell>
        <mxCell id="W6JMrzAl0BDulRiqm-cF-155" value="&lt;span style=&quot;font-family: Verdana; text-wrap: nowrap;&quot;&gt;inventory_id&lt;/span&gt;&lt;span style=&quot;text-wrap: nowrap; font-family: Verdana;&quot;&gt;&lt;span style=&quot;white-space-collapse: preserve;&quot;&gt;&#x9;&lt;span style=&quot;white-space-collapse: preserve;&quot;&gt;&#x9;&lt;/span&gt;&lt;/span&gt;&lt;/span&gt;&lt;span style=&quot;text-wrap: nowrap; font-family: Verdana;&quot;&gt;INT&lt;/span&gt;" style="shape=partialRectangle;connectable=0;fillColor=none;top=0;left=0;bottom=0;right=0;align=left;spacingLeft=6;fontStyle=5;overflow=hidden;whiteSpace=wrap;html=1;" vertex="1" parent="W6JMrzAl0BDulRiqm-cF-153">
          <mxGeometry x="30" width="210" height="30" as="geometry">
            <mxRectangle width="210" height="30" as="alternateBounds" />
          </mxGeometry>
        </mxCell>
        <mxCell id="W6JMrzAl0BDulRiqm-cF-156" value="" style="shape=tableRow;horizontal=0;startSize=0;swimlaneHead=0;swimlaneBody=0;fillColor=none;collapsible=0;dropTarget=0;points=[[0,0.5],[1,0.5]];portConstraint=eastwest;top=0;left=0;right=0;bottom=0;" vertex="1" parent="W6JMrzAl0BDulRiqm-cF-152">
          <mxGeometry y="60" width="240" height="30" as="geometry" />
        </mxCell>
        <mxCell id="W6JMrzAl0BDulRiqm-cF-157" value="" style="shape=partialRectangle;connectable=0;fillColor=none;top=0;left=0;bottom=0;right=0;editable=1;overflow=hidden;whiteSpace=wrap;html=1;" vertex="1" parent="W6JMrzAl0BDulRiqm-cF-156">
          <mxGeometry width="30" height="30" as="geometry">
            <mxRectangle width="30" height="30" as="alternateBounds" />
          </mxGeometry>
        </mxCell>
        <mxCell id="W6JMrzAl0BDulRiqm-cF-158" value="&lt;span style=&quot;font-family: Verdana; text-wrap: nowrap;&quot;&gt;item_name&lt;/span&gt;&lt;span style=&quot;font-family: Verdana; white-space: pre;&quot;&gt;&lt;span style=&quot;white-space: pre;&quot;&gt;&#x9;&lt;/span&gt;&lt;/span&gt;&lt;span style=&quot;text-wrap: nowrap; font-family: Verdana;&quot;&gt;VARCHAR(100)&lt;/span&gt;" style="shape=partialRectangle;connectable=0;fillColor=none;top=0;left=0;bottom=0;right=0;align=left;spacingLeft=6;overflow=hidden;whiteSpace=wrap;html=1;" vertex="1" parent="W6JMrzAl0BDulRiqm-cF-156">
          <mxGeometry x="30" width="210" height="30" as="geometry">
            <mxRectangle width="210" height="30" as="alternateBounds" />
          </mxGeometry>
        </mxCell>
        <mxCell id="W6JMrzAl0BDulRiqm-cF-159" value="" style="shape=tableRow;horizontal=0;startSize=0;swimlaneHead=0;swimlaneBody=0;fillColor=none;collapsible=0;dropTarget=0;points=[[0,0.5],[1,0.5]];portConstraint=eastwest;top=0;left=0;right=0;bottom=0;" vertex="1" parent="W6JMrzAl0BDulRiqm-cF-152">
          <mxGeometry y="90" width="240" height="30" as="geometry" />
        </mxCell>
        <mxCell id="W6JMrzAl0BDulRiqm-cF-160" value="" style="shape=partialRectangle;connectable=0;fillColor=none;top=0;left=0;bottom=0;right=0;editable=1;overflow=hidden;whiteSpace=wrap;html=1;" vertex="1" parent="W6JMrzAl0BDulRiqm-cF-159">
          <mxGeometry width="30" height="30" as="geometry">
            <mxRectangle width="30" height="30" as="alternateBounds" />
          </mxGeometry>
        </mxCell>
        <mxCell id="W6JMrzAl0BDulRiqm-cF-161" value="&lt;span style=&quot;font-family: Verdana; text-wrap: nowrap;&quot;&gt;quantity&lt;span style=&quot;white-space: pre;&quot;&gt;&#x9;&lt;/span&gt;&lt;span style=&quot;white-space: pre;&quot;&gt;&#x9;&lt;/span&gt;INT&lt;/span&gt;" style="shape=partialRectangle;connectable=0;fillColor=none;top=0;left=0;bottom=0;right=0;align=left;spacingLeft=6;overflow=hidden;whiteSpace=wrap;html=1;" vertex="1" parent="W6JMrzAl0BDulRiqm-cF-159">
          <mxGeometry x="30" width="210" height="30" as="geometry">
            <mxRectangle width="210" height="30" as="alternateBounds" />
          </mxGeometry>
        </mxCell>
        <mxCell id="W6JMrzAl0BDulRiqm-cF-162" value="" style="shape=tableRow;horizontal=0;startSize=0;swimlaneHead=0;swimlaneBody=0;fillColor=none;collapsible=0;dropTarget=0;points=[[0,0.5],[1,0.5]];portConstraint=eastwest;top=0;left=0;right=0;bottom=0;" vertex="1" parent="W6JMrzAl0BDulRiqm-cF-152">
          <mxGeometry y="120" width="240" height="30" as="geometry" />
        </mxCell>
        <mxCell id="W6JMrzAl0BDulRiqm-cF-163" value="" style="shape=partialRectangle;connectable=0;fillColor=none;top=0;left=0;bottom=0;right=0;editable=1;overflow=hidden;whiteSpace=wrap;html=1;" vertex="1" parent="W6JMrzAl0BDulRiqm-cF-162">
          <mxGeometry width="30" height="30" as="geometry">
            <mxRectangle width="30" height="30" as="alternateBounds" />
          </mxGeometry>
        </mxCell>
        <mxCell id="W6JMrzAl0BDulRiqm-cF-164" value="&lt;span style=&quot;font-family: Verdana; text-wrap: nowrap;&quot;&gt;unit&lt;span style=&quot;white-space: pre;&quot;&gt;&#x9;&lt;/span&gt;&lt;span style=&quot;white-space: pre;&quot;&gt;&#x9;&lt;/span&gt;&lt;/span&gt;&lt;span style=&quot;font-family: Verdana; white-space: pre;&quot;&gt;&#x9;&lt;/span&gt;&lt;span style=&quot;text-wrap: nowrap; font-family: Verdana;&quot;&gt;VARCHAR(20)&lt;/span&gt;" style="shape=partialRectangle;connectable=0;fillColor=none;top=0;left=0;bottom=0;right=0;align=left;spacingLeft=6;overflow=hidden;whiteSpace=wrap;html=1;" vertex="1" parent="W6JMrzAl0BDulRiqm-cF-162">
          <mxGeometry x="30" width="210" height="30" as="geometry">
            <mxRectangle width="210" height="30" as="alternateBounds" />
          </mxGeometry>
        </mxCell>
        <mxCell id="W6JMrzAl0BDulRiqm-cF-168" value="" style="shape=tableRow;horizontal=0;startSize=0;swimlaneHead=0;swimlaneBody=0;fillColor=none;collapsible=0;dropTarget=0;points=[[0,0.5],[1,0.5]];portConstraint=eastwest;top=0;left=0;right=0;bottom=0;" vertex="1" parent="W6JMrzAl0BDulRiqm-cF-152">
          <mxGeometry y="150" width="240" height="30" as="geometry" />
        </mxCell>
        <mxCell id="W6JMrzAl0BDulRiqm-cF-169" value="" style="shape=partialRectangle;connectable=0;fillColor=none;top=0;left=0;bottom=0;right=0;editable=1;overflow=hidden;whiteSpace=wrap;html=1;fontStyle=1" vertex="1" parent="W6JMrzAl0BDulRiqm-cF-168">
          <mxGeometry width="30" height="30" as="geometry">
            <mxRectangle width="30" height="30" as="alternateBounds" />
          </mxGeometry>
        </mxCell>
        <mxCell id="W6JMrzAl0BDulRiqm-cF-170" value="&lt;span style=&quot;font-family: Verdana; font-weight: 400; text-wrap: nowrap;&quot;&gt;cost_per_unit&lt;/span&gt;&lt;span style=&quot;text-wrap: nowrap; font-family: Verdana;&quot;&gt;&lt;span style=&quot;white-space-collapse: preserve;&quot;&gt;&#x9;&lt;/span&gt;&lt;/span&gt;&lt;span style=&quot;font-family: Verdana; font-weight: 400; text-wrap: nowrap;&quot;&gt;DECIMAL(10,2)&lt;/span&gt;" style="shape=partialRectangle;connectable=0;fillColor=none;top=0;left=0;bottom=0;right=0;align=left;spacingLeft=6;overflow=hidden;whiteSpace=wrap;html=1;fontStyle=1" vertex="1" parent="W6JMrzAl0BDulRiqm-cF-168">
          <mxGeometry x="30" width="210" height="30" as="geometry">
            <mxRectangle width="210" height="30" as="alternateBounds" />
          </mxGeometry>
        </mxCell>
        <mxCell id="W6JMrzAl0BDulRiqm-cF-174" value="" style="shape=tableRow;horizontal=0;startSize=0;swimlaneHead=0;swimlaneBody=0;fillColor=none;collapsible=0;dropTarget=0;points=[[0,0.5],[1,0.5]];portConstraint=eastwest;top=0;left=0;right=0;bottom=0;" vertex="1" parent="W6JMrzAl0BDulRiqm-cF-152">
          <mxGeometry y="180" width="240" height="30" as="geometry" />
        </mxCell>
        <mxCell id="W6JMrzAl0BDulRiqm-cF-175" value="" style="shape=partialRectangle;connectable=0;fillColor=none;top=0;left=0;bottom=0;right=0;editable=1;overflow=hidden;whiteSpace=wrap;html=1;fontStyle=1" vertex="1" parent="W6JMrzAl0BDulRiqm-cF-174">
          <mxGeometry width="30" height="30" as="geometry">
            <mxRectangle width="30" height="30" as="alternateBounds" />
          </mxGeometry>
        </mxCell>
        <mxCell id="W6JMrzAl0BDulRiqm-cF-176" value="&lt;span style=&quot;font-family: Verdana; font-weight: 400; text-wrap: nowrap;&quot;&gt;last_updated&lt;/span&gt;&lt;span style=&quot;font-family: Verdana; font-weight: 400; white-space: pre;&quot;&gt;&#x9;&lt;/span&gt;&lt;span style=&quot;font-family: Verdana; font-weight: 400; text-wrap: nowrap;&quot;&gt;DATETIME&lt;/span&gt;" style="shape=partialRectangle;connectable=0;fillColor=none;top=0;left=0;bottom=0;right=0;align=left;spacingLeft=6;overflow=hidden;whiteSpace=wrap;html=1;fontStyle=1" vertex="1" parent="W6JMrzAl0BDulRiqm-cF-174">
          <mxGeometry x="30" width="210" height="30" as="geometry">
            <mxRectangle width="210" height="30" as="alternateBounds" />
          </mxGeometry>
        </mxCell>
        <mxCell id="W6JMrzAl0BDulRiqm-cF-180" value="" style="shape=tableRow;horizontal=0;startSize=0;swimlaneHead=0;swimlaneBody=0;fillColor=none;collapsible=0;dropTarget=0;points=[[0,0.5],[1,0.5]];portConstraint=eastwest;top=0;left=0;right=0;bottom=0;" vertex="1" parent="W6JMrzAl0BDulRiqm-cF-152">
          <mxGeometry y="210" width="240" height="30" as="geometry" />
        </mxCell>
        <mxCell id="W6JMrzAl0BDulRiqm-cF-181" value="FK1" style="shape=partialRectangle;connectable=0;fillColor=none;top=0;left=0;bottom=0;right=0;editable=1;overflow=hidden;whiteSpace=wrap;html=1;fontStyle=1" vertex="1" parent="W6JMrzAl0BDulRiqm-cF-180">
          <mxGeometry width="30" height="30" as="geometry">
            <mxRectangle width="30" height="30" as="alternateBounds" />
          </mxGeometry>
        </mxCell>
        <mxCell id="W6JMrzAl0BDulRiqm-cF-182" value="&lt;span style=&quot;font-family: Verdana; text-wrap: nowrap;&quot;&gt;restaurant_id&lt;/span&gt;&lt;span style=&quot;text-wrap: nowrap; font-family: Verdana;&quot;&gt;&lt;span style=&quot;white-space-collapse: preserve;&quot;&gt;&#x9;&lt;/span&gt;&lt;span style=&quot;white-space-collapse: preserve;&quot;&gt;&#x9;&lt;/span&gt;&lt;/span&gt;&lt;span style=&quot;text-wrap: nowrap; font-family: Verdana;&quot;&gt;INT&lt;/span&gt;" style="shape=partialRectangle;connectable=0;fillColor=none;top=0;left=0;bottom=0;right=0;align=left;spacingLeft=6;overflow=hidden;whiteSpace=wrap;html=1;fontStyle=1" vertex="1" parent="W6JMrzAl0BDulRiqm-cF-180">
          <mxGeometry x="30" width="210" height="30" as="geometry">
            <mxRectangle width="210" height="30" as="alternateBounds" />
          </mxGeometry>
        </mxCell>
        <mxCell id="W6JMrzAl0BDulRiqm-cF-183" value="&lt;span style=&quot;font-family: Verdana; text-align: left;&quot;&gt;&lt;font style=&quot;&quot; color=&quot;#ffffff&quot;&gt;Users&lt;/font&gt;&lt;/span&gt;" style="shape=table;startSize=30;container=1;collapsible=1;childLayout=tableLayout;fixedRows=1;rowLines=0;fontStyle=1;align=center;resizeLast=1;html=1;fillColor=#6666FF;" vertex="1" parent="1">
          <mxGeometry x="390" y="-540" width="340" height="270" as="geometry" />
        </mxCell>
        <mxCell id="W6JMrzAl0BDulRiqm-cF-184" value="" style="shape=tableRow;horizontal=0;startSize=0;swimlaneHead=0;swimlaneBody=0;fillColor=none;collapsible=0;dropTarget=0;points=[[0,0.5],[1,0.5]];portConstraint=eastwest;top=0;left=0;right=0;bottom=1;" vertex="1" parent="W6JMrzAl0BDulRiqm-cF-183">
          <mxGeometry y="30" width="340" height="30" as="geometry" />
        </mxCell>
        <mxCell id="W6JMrzAl0BDulRiqm-cF-185" value="PK" style="shape=partialRectangle;connectable=0;fillColor=none;top=0;left=0;bottom=0;right=0;fontStyle=1;overflow=hidden;whiteSpace=wrap;html=1;" vertex="1" parent="W6JMrzAl0BDulRiqm-cF-184">
          <mxGeometry width="30" height="30" as="geometry">
            <mxRectangle width="30" height="30" as="alternateBounds" />
          </mxGeometry>
        </mxCell>
        <mxCell id="W6JMrzAl0BDulRiqm-cF-186" value="&lt;span style=&quot;font-family: Verdana; text-wrap: nowrap;&quot;&gt;user_id&lt;/span&gt;&lt;span style=&quot;text-wrap: nowrap; font-family: Verdana;&quot;&gt;&lt;span style=&quot;white-space-collapse: preserve;&quot;&gt;&#x9;&lt;span style=&quot;white-space-collapse: preserve;&quot;&gt;&#x9;&lt;/span&gt;&lt;/span&gt;&lt;/span&gt;&lt;span style=&quot;text-wrap: nowrap; font-family: Verdana;&quot;&gt;INT&lt;/span&gt;" style="shape=partialRectangle;connectable=0;fillColor=none;top=0;left=0;bottom=0;right=0;align=left;spacingLeft=6;fontStyle=5;overflow=hidden;whiteSpace=wrap;html=1;" vertex="1" parent="W6JMrzAl0BDulRiqm-cF-184">
          <mxGeometry x="30" width="310" height="30" as="geometry">
            <mxRectangle width="310" height="30" as="alternateBounds" />
          </mxGeometry>
        </mxCell>
        <mxCell id="W6JMrzAl0BDulRiqm-cF-187" value="" style="shape=tableRow;horizontal=0;startSize=0;swimlaneHead=0;swimlaneBody=0;fillColor=none;collapsible=0;dropTarget=0;points=[[0,0.5],[1,0.5]];portConstraint=eastwest;top=0;left=0;right=0;bottom=0;" vertex="1" parent="W6JMrzAl0BDulRiqm-cF-183">
          <mxGeometry y="60" width="340" height="30" as="geometry" />
        </mxCell>
        <mxCell id="W6JMrzAl0BDulRiqm-cF-188" value="" style="shape=partialRectangle;connectable=0;fillColor=none;top=0;left=0;bottom=0;right=0;editable=1;overflow=hidden;whiteSpace=wrap;html=1;" vertex="1" parent="W6JMrzAl0BDulRiqm-cF-187">
          <mxGeometry width="30" height="30" as="geometry">
            <mxRectangle width="30" height="30" as="alternateBounds" />
          </mxGeometry>
        </mxCell>
        <mxCell id="W6JMrzAl0BDulRiqm-cF-189" value="&lt;span style=&quot;font-family: Verdana; text-wrap: nowrap;&quot;&gt;first_name&lt;span style=&quot;white-space: pre;&quot;&gt;&#x9;&lt;/span&gt;&lt;/span&gt;&lt;span style=&quot;font-family: Verdana; white-space: pre;&quot;&gt;&lt;span style=&quot;white-space: pre;&quot;&gt;&#x9;&lt;/span&gt;&lt;/span&gt;&lt;span style=&quot;text-wrap: nowrap; font-family: Verdana;&quot;&gt;VARCHAR(50)&lt;/span&gt;" style="shape=partialRectangle;connectable=0;fillColor=none;top=0;left=0;bottom=0;right=0;align=left;spacingLeft=6;overflow=hidden;whiteSpace=wrap;html=1;" vertex="1" parent="W6JMrzAl0BDulRiqm-cF-187">
          <mxGeometry x="30" width="310" height="30" as="geometry">
            <mxRectangle width="310" height="30" as="alternateBounds" />
          </mxGeometry>
        </mxCell>
        <mxCell id="W6JMrzAl0BDulRiqm-cF-190" value="" style="shape=tableRow;horizontal=0;startSize=0;swimlaneHead=0;swimlaneBody=0;fillColor=none;collapsible=0;dropTarget=0;points=[[0,0.5],[1,0.5]];portConstraint=eastwest;top=0;left=0;right=0;bottom=0;" vertex="1" parent="W6JMrzAl0BDulRiqm-cF-183">
          <mxGeometry y="90" width="340" height="30" as="geometry" />
        </mxCell>
        <mxCell id="W6JMrzAl0BDulRiqm-cF-191" value="" style="shape=partialRectangle;connectable=0;fillColor=none;top=0;left=0;bottom=0;right=0;editable=1;overflow=hidden;whiteSpace=wrap;html=1;" vertex="1" parent="W6JMrzAl0BDulRiqm-cF-190">
          <mxGeometry width="30" height="30" as="geometry">
            <mxRectangle width="30" height="30" as="alternateBounds" />
          </mxGeometry>
        </mxCell>
        <mxCell id="W6JMrzAl0BDulRiqm-cF-192" value="&lt;span style=&quot;text-wrap: nowrap; font-family: Verdana;&quot;&gt;last_name&lt;span style=&quot;white-space-collapse: preserve;&quot;&gt;&#x9;&lt;/span&gt;&lt;span style=&quot;white-space-collapse: preserve;&quot;&gt;&#x9;&lt;/span&gt;&lt;/span&gt;&lt;span style=&quot;text-wrap: nowrap; font-family: Verdana;&quot;&gt;VARCHAR(50)&lt;/span&gt;" style="shape=partialRectangle;connectable=0;fillColor=none;top=0;left=0;bottom=0;right=0;align=left;spacingLeft=6;overflow=hidden;whiteSpace=wrap;html=1;" vertex="1" parent="W6JMrzAl0BDulRiqm-cF-190">
          <mxGeometry x="30" width="310" height="30" as="geometry">
            <mxRectangle width="310" height="30" as="alternateBounds" />
          </mxGeometry>
        </mxCell>
        <mxCell id="W6JMrzAl0BDulRiqm-cF-193" value="" style="shape=tableRow;horizontal=0;startSize=0;swimlaneHead=0;swimlaneBody=0;fillColor=none;collapsible=0;dropTarget=0;points=[[0,0.5],[1,0.5]];portConstraint=eastwest;top=0;left=0;right=0;bottom=0;" vertex="1" parent="W6JMrzAl0BDulRiqm-cF-183">
          <mxGeometry y="120" width="340" height="30" as="geometry" />
        </mxCell>
        <mxCell id="W6JMrzAl0BDulRiqm-cF-194" value="" style="shape=partialRectangle;connectable=0;fillColor=none;top=0;left=0;bottom=0;right=0;editable=1;overflow=hidden;whiteSpace=wrap;html=1;" vertex="1" parent="W6JMrzAl0BDulRiqm-cF-193">
          <mxGeometry width="30" height="30" as="geometry">
            <mxRectangle width="30" height="30" as="alternateBounds" />
          </mxGeometry>
        </mxCell>
        <mxCell id="W6JMrzAl0BDulRiqm-cF-195" value="&lt;span style=&quot;font-family: Verdana; text-wrap: nowrap;&quot;&gt;email&lt;/span&gt;&lt;span style=&quot;font-family: Verdana; white-space: pre;&quot;&gt;&#x9;&lt;/span&gt;&lt;span style=&quot;font-family: Verdana; white-space: pre;&quot;&gt;&#x9;&lt;/span&gt;&lt;span style=&quot;font-family: Verdana; text-wrap: nowrap;&quot;&gt;VARCHAR(100)&lt;/span&gt;" style="shape=partialRectangle;connectable=0;fillColor=none;top=0;left=0;bottom=0;right=0;align=left;spacingLeft=6;overflow=hidden;whiteSpace=wrap;html=1;" vertex="1" parent="W6JMrzAl0BDulRiqm-cF-193">
          <mxGeometry x="30" width="310" height="30" as="geometry">
            <mxRectangle width="310" height="30" as="alternateBounds" />
          </mxGeometry>
        </mxCell>
        <mxCell id="W6JMrzAl0BDulRiqm-cF-196" value="" style="shape=tableRow;horizontal=0;startSize=0;swimlaneHead=0;swimlaneBody=0;fillColor=none;collapsible=0;dropTarget=0;points=[[0,0.5],[1,0.5]];portConstraint=eastwest;top=0;left=0;right=0;bottom=0;" vertex="1" parent="W6JMrzAl0BDulRiqm-cF-183">
          <mxGeometry y="150" width="340" height="30" as="geometry" />
        </mxCell>
        <mxCell id="W6JMrzAl0BDulRiqm-cF-197" value="" style="shape=partialRectangle;connectable=0;fillColor=none;top=0;left=0;bottom=0;right=0;editable=1;overflow=hidden;whiteSpace=wrap;html=1;" vertex="1" parent="W6JMrzAl0BDulRiqm-cF-196">
          <mxGeometry width="30" height="30" as="geometry">
            <mxRectangle width="30" height="30" as="alternateBounds" />
          </mxGeometry>
        </mxCell>
        <mxCell id="W6JMrzAl0BDulRiqm-cF-198" value="&lt;span style=&quot;font-family: Verdana; text-wrap: nowrap;&quot;&gt;phone&lt;span style=&quot;white-space: pre;&quot;&gt;&#x9;&lt;/span&gt;&lt;/span&gt;&lt;span style=&quot;font-family: Verdana; white-space: pre;&quot;&gt;&#x9;&lt;/span&gt;&lt;span style=&quot;font-family: Verdana; text-wrap: nowrap;&quot;&gt;VARCHAR(20)&lt;/span&gt;" style="shape=partialRectangle;connectable=0;fillColor=none;top=0;left=0;bottom=0;right=0;align=left;spacingLeft=6;overflow=hidden;whiteSpace=wrap;html=1;" vertex="1" parent="W6JMrzAl0BDulRiqm-cF-196">
          <mxGeometry x="30" width="310" height="30" as="geometry">
            <mxRectangle width="310" height="30" as="alternateBounds" />
          </mxGeometry>
        </mxCell>
        <mxCell id="W6JMrzAl0BDulRiqm-cF-199" value="" style="shape=tableRow;horizontal=0;startSize=0;swimlaneHead=0;swimlaneBody=0;fillColor=none;collapsible=0;dropTarget=0;points=[[0,0.5],[1,0.5]];portConstraint=eastwest;top=0;left=0;right=0;bottom=0;" vertex="1" parent="W6JMrzAl0BDulRiqm-cF-183">
          <mxGeometry y="180" width="340" height="30" as="geometry" />
        </mxCell>
        <mxCell id="W6JMrzAl0BDulRiqm-cF-200" value="" style="shape=partialRectangle;connectable=0;fillColor=none;top=0;left=0;bottom=0;right=0;editable=1;overflow=hidden;whiteSpace=wrap;html=1;" vertex="1" parent="W6JMrzAl0BDulRiqm-cF-199">
          <mxGeometry width="30" height="30" as="geometry">
            <mxRectangle width="30" height="30" as="alternateBounds" />
          </mxGeometry>
        </mxCell>
        <mxCell id="W6JMrzAl0BDulRiqm-cF-201" value="&lt;span style=&quot;font-family: Verdana; text-wrap: nowrap;&quot;&gt;role&lt;span style=&quot;white-space: pre;&quot;&gt;&#x9;&lt;/span&gt;&lt;/span&gt;&lt;span style=&quot;text-wrap: nowrap; font-family: Verdana;&quot;&gt;&lt;span style=&quot;white-space-collapse: preserve;&quot;&gt;&#x9;&lt;/span&gt;&lt;span style=&quot;white-space-collapse: preserve;&quot;&gt;&#x9;&lt;/span&gt;&lt;/span&gt;&lt;span style=&quot;font-family: Verdana; text-wrap: nowrap;&quot;&gt;ENUM&amp;nbsp;&lt;/span&gt;&lt;span style=&quot;font-family: Verdana; text-wrap: nowrap;&quot;&gt;(&#39;admin&#39;,&#39;manager&#39;,&#39;staff&#39;)&lt;/span&gt;" style="shape=partialRectangle;connectable=0;fillColor=none;top=0;left=0;bottom=0;right=0;align=left;spacingLeft=6;overflow=hidden;whiteSpace=wrap;html=1;" vertex="1" parent="W6JMrzAl0BDulRiqm-cF-199">
          <mxGeometry x="30" width="310" height="30" as="geometry">
            <mxRectangle width="310" height="30" as="alternateBounds" />
          </mxGeometry>
        </mxCell>
        <mxCell id="W6JMrzAl0BDulRiqm-cF-202" value="" style="shape=tableRow;horizontal=0;startSize=0;swimlaneHead=0;swimlaneBody=0;fillColor=none;collapsible=0;dropTarget=0;points=[[0,0.5],[1,0.5]];portConstraint=eastwest;top=0;left=0;right=0;bottom=0;" vertex="1" parent="W6JMrzAl0BDulRiqm-cF-183">
          <mxGeometry y="210" width="340" height="30" as="geometry" />
        </mxCell>
        <mxCell id="W6JMrzAl0BDulRiqm-cF-203" value="" style="shape=partialRectangle;connectable=0;fillColor=none;top=0;left=0;bottom=0;right=0;editable=1;overflow=hidden;whiteSpace=wrap;html=1;fontStyle=1" vertex="1" parent="W6JMrzAl0BDulRiqm-cF-202">
          <mxGeometry width="30" height="30" as="geometry">
            <mxRectangle width="30" height="30" as="alternateBounds" />
          </mxGeometry>
        </mxCell>
        <mxCell id="W6JMrzAl0BDulRiqm-cF-204" value="&lt;span style=&quot;font-family: Verdana; font-weight: 400; text-wrap: nowrap;&quot;&gt;created_at&lt;/span&gt;&lt;span style=&quot;text-wrap: nowrap; font-family: Verdana;&quot;&gt;&lt;span style=&quot;white-space-collapse: preserve;&quot;&gt;&#x9;&lt;/span&gt;&lt;/span&gt;&lt;span style=&quot;font-family: Verdana; font-weight: 400; text-wrap: nowrap;&quot;&gt;DATETIME&lt;/span&gt;" style="shape=partialRectangle;connectable=0;fillColor=none;top=0;left=0;bottom=0;right=0;align=left;spacingLeft=6;overflow=hidden;whiteSpace=wrap;html=1;fontStyle=1" vertex="1" parent="W6JMrzAl0BDulRiqm-cF-202">
          <mxGeometry x="30" width="310" height="30" as="geometry">
            <mxRectangle width="310" height="30" as="alternateBounds" />
          </mxGeometry>
        </mxCell>
        <mxCell id="W6JMrzAl0BDulRiqm-cF-205" value="" style="shape=tableRow;horizontal=0;startSize=0;swimlaneHead=0;swimlaneBody=0;fillColor=none;collapsible=0;dropTarget=0;points=[[0,0.5],[1,0.5]];portConstraint=eastwest;top=0;left=0;right=0;bottom=0;" vertex="1" parent="W6JMrzAl0BDulRiqm-cF-183">
          <mxGeometry y="240" width="340" height="30" as="geometry" />
        </mxCell>
        <mxCell id="W6JMrzAl0BDulRiqm-cF-206" value="FK1" style="shape=partialRectangle;connectable=0;fillColor=none;top=0;left=0;bottom=0;right=0;editable=1;overflow=hidden;whiteSpace=wrap;html=1;fontStyle=1" vertex="1" parent="W6JMrzAl0BDulRiqm-cF-205">
          <mxGeometry width="30" height="30" as="geometry">
            <mxRectangle width="30" height="30" as="alternateBounds" />
          </mxGeometry>
        </mxCell>
        <mxCell id="W6JMrzAl0BDulRiqm-cF-207" value="&lt;span style=&quot;font-family: Verdana; text-wrap: nowrap;&quot;&gt;restaurant_id&lt;span style=&quot;font-weight: 400; white-space: pre;&quot;&gt;&#x9;&lt;/span&gt;&lt;/span&gt;&lt;span style=&quot;text-wrap: nowrap; font-family: Verdana;&quot;&gt;&lt;span style=&quot;white-space-collapse: preserve;&quot;&gt;&#x9;&lt;/span&gt;&lt;span style=&quot;white-space-collapse: preserve;&quot;&gt;&#x9;&lt;/span&gt;&lt;/span&gt;&lt;span style=&quot;text-wrap: nowrap; font-family: Verdana;&quot;&gt;INT&lt;/span&gt;" style="shape=partialRectangle;connectable=0;fillColor=none;top=0;left=0;bottom=0;right=0;align=left;spacingLeft=6;overflow=hidden;whiteSpace=wrap;html=1;fontStyle=1" vertex="1" parent="W6JMrzAl0BDulRiqm-cF-205">
          <mxGeometry x="30" width="310" height="30" as="geometry">
            <mxRectangle width="310" height="30" as="alternateBounds" />
          </mxGeometry>
        </mxCell>
        <mxCell id="W6JMrzAl0BDulRiqm-cF-208" value="&lt;span style=&quot;font-family: Verdana; text-align: left;&quot;&gt;&lt;font style=&quot;&quot; color=&quot;#ffffff&quot;&gt;Reservation&lt;/font&gt;&lt;/span&gt;" style="shape=table;startSize=30;container=1;collapsible=1;childLayout=tableLayout;fixedRows=1;rowLines=0;fontStyle=1;align=center;resizeLast=1;html=1;fillColor=#6666FF;" vertex="1" parent="1">
          <mxGeometry x="367.5" y="50" width="430" height="270" as="geometry" />
        </mxCell>
        <mxCell id="W6JMrzAl0BDulRiqm-cF-209" value="" style="shape=tableRow;horizontal=0;startSize=0;swimlaneHead=0;swimlaneBody=0;fillColor=none;collapsible=0;dropTarget=0;points=[[0,0.5],[1,0.5]];portConstraint=eastwest;top=0;left=0;right=0;bottom=1;" vertex="1" parent="W6JMrzAl0BDulRiqm-cF-208">
          <mxGeometry y="30" width="430" height="30" as="geometry" />
        </mxCell>
        <mxCell id="W6JMrzAl0BDulRiqm-cF-210" value="PK" style="shape=partialRectangle;connectable=0;fillColor=none;top=0;left=0;bottom=0;right=0;fontStyle=1;overflow=hidden;whiteSpace=wrap;html=1;" vertex="1" parent="W6JMrzAl0BDulRiqm-cF-209">
          <mxGeometry width="30" height="30" as="geometry">
            <mxRectangle width="30" height="30" as="alternateBounds" />
          </mxGeometry>
        </mxCell>
        <mxCell id="W6JMrzAl0BDulRiqm-cF-211" value="&lt;span style=&quot;font-family: Verdana; text-wrap: nowrap;&quot;&gt;reservation_id&lt;/span&gt;&lt;span style=&quot;text-wrap: nowrap; font-family: Verdana;&quot;&gt;&lt;span style=&quot;white-space-collapse: preserve;&quot;&gt;&#x9;&lt;span style=&quot;white-space-collapse: preserve;&quot;&gt;&#x9;&lt;/span&gt;&lt;/span&gt;&lt;/span&gt;&lt;span style=&quot;text-wrap: nowrap; font-family: Verdana;&quot;&gt;INT&lt;/span&gt;" style="shape=partialRectangle;connectable=0;fillColor=none;top=0;left=0;bottom=0;right=0;align=left;spacingLeft=6;fontStyle=5;overflow=hidden;whiteSpace=wrap;html=1;" vertex="1" parent="W6JMrzAl0BDulRiqm-cF-209">
          <mxGeometry x="30" width="400" height="30" as="geometry">
            <mxRectangle width="400" height="30" as="alternateBounds" />
          </mxGeometry>
        </mxCell>
        <mxCell id="W6JMrzAl0BDulRiqm-cF-212" value="" style="shape=tableRow;horizontal=0;startSize=0;swimlaneHead=0;swimlaneBody=0;fillColor=none;collapsible=0;dropTarget=0;points=[[0,0.5],[1,0.5]];portConstraint=eastwest;top=0;left=0;right=0;bottom=0;" vertex="1" parent="W6JMrzAl0BDulRiqm-cF-208">
          <mxGeometry y="60" width="430" height="30" as="geometry" />
        </mxCell>
        <mxCell id="W6JMrzAl0BDulRiqm-cF-213" value="" style="shape=partialRectangle;connectable=0;fillColor=none;top=0;left=0;bottom=0;right=0;editable=1;overflow=hidden;whiteSpace=wrap;html=1;" vertex="1" parent="W6JMrzAl0BDulRiqm-cF-212">
          <mxGeometry width="30" height="30" as="geometry">
            <mxRectangle width="30" height="30" as="alternateBounds" />
          </mxGeometry>
        </mxCell>
        <mxCell id="W6JMrzAl0BDulRiqm-cF-214" value="&lt;span style=&quot;font-family: Verdana; text-wrap: nowrap;&quot;&gt;order_date&lt;/span&gt;&lt;span style=&quot;font-family: Verdana; white-space: pre;&quot;&gt;&lt;span style=&quot;white-space: pre;&quot;&gt;&#x9;&lt;span style=&quot;white-space: pre;&quot;&gt;&#x9;&lt;/span&gt;&lt;/span&gt;&lt;/span&gt;&lt;span style=&quot;text-wrap: nowrap; font-family: Verdana;&quot;&gt;VARCHAR(50)&lt;/span&gt;" style="shape=partialRectangle;connectable=0;fillColor=none;top=0;left=0;bottom=0;right=0;align=left;spacingLeft=6;overflow=hidden;whiteSpace=wrap;html=1;" vertex="1" parent="W6JMrzAl0BDulRiqm-cF-212">
          <mxGeometry x="30" width="400" height="30" as="geometry">
            <mxRectangle width="400" height="30" as="alternateBounds" />
          </mxGeometry>
        </mxCell>
        <mxCell id="W6JMrzAl0BDulRiqm-cF-215" value="" style="shape=tableRow;horizontal=0;startSize=0;swimlaneHead=0;swimlaneBody=0;fillColor=none;collapsible=0;dropTarget=0;points=[[0,0.5],[1,0.5]];portConstraint=eastwest;top=0;left=0;right=0;bottom=0;" vertex="1" parent="W6JMrzAl0BDulRiqm-cF-208">
          <mxGeometry y="90" width="430" height="30" as="geometry" />
        </mxCell>
        <mxCell id="W6JMrzAl0BDulRiqm-cF-216" value="" style="shape=partialRectangle;connectable=0;fillColor=none;top=0;left=0;bottom=0;right=0;editable=1;overflow=hidden;whiteSpace=wrap;html=1;" vertex="1" parent="W6JMrzAl0BDulRiqm-cF-215">
          <mxGeometry width="30" height="30" as="geometry">
            <mxRectangle width="30" height="30" as="alternateBounds" />
          </mxGeometry>
        </mxCell>
        <mxCell id="W6JMrzAl0BDulRiqm-cF-217" value="&lt;span style=&quot;text-wrap: nowrap; font-family: Verdana;&quot;&gt;last_name&lt;span style=&quot;white-space-collapse: preserve;&quot;&gt;&#x9;&lt;/span&gt;&lt;span style=&quot;white-space-collapse: preserve;&quot;&gt;&#x9;&lt;span style=&quot;white-space: pre;&quot;&gt;&#x9;&lt;/span&gt;&lt;/span&gt;&lt;/span&gt;&lt;span style=&quot;text-wrap: nowrap; font-family: Verdana;&quot;&gt;VARCHAR(50)&lt;/span&gt;" style="shape=partialRectangle;connectable=0;fillColor=none;top=0;left=0;bottom=0;right=0;align=left;spacingLeft=6;overflow=hidden;whiteSpace=wrap;html=1;" vertex="1" parent="W6JMrzAl0BDulRiqm-cF-215">
          <mxGeometry x="30" width="400" height="30" as="geometry">
            <mxRectangle width="400" height="30" as="alternateBounds" />
          </mxGeometry>
        </mxCell>
        <mxCell id="W6JMrzAl0BDulRiqm-cF-218" value="" style="shape=tableRow;horizontal=0;startSize=0;swimlaneHead=0;swimlaneBody=0;fillColor=none;collapsible=0;dropTarget=0;points=[[0,0.5],[1,0.5]];portConstraint=eastwest;top=0;left=0;right=0;bottom=0;" vertex="1" parent="W6JMrzAl0BDulRiqm-cF-208">
          <mxGeometry y="120" width="430" height="30" as="geometry" />
        </mxCell>
        <mxCell id="W6JMrzAl0BDulRiqm-cF-219" value="" style="shape=partialRectangle;connectable=0;fillColor=none;top=0;left=0;bottom=0;right=0;editable=1;overflow=hidden;whiteSpace=wrap;html=1;" vertex="1" parent="W6JMrzAl0BDulRiqm-cF-218">
          <mxGeometry width="30" height="30" as="geometry">
            <mxRectangle width="30" height="30" as="alternateBounds" />
          </mxGeometry>
        </mxCell>
        <mxCell id="W6JMrzAl0BDulRiqm-cF-220" value="&lt;span style=&quot;font-family: Verdana; text-wrap: nowrap;&quot;&gt;reservation_date&lt;span style=&quot;white-space: pre;&quot;&gt;&#x9;&lt;/span&gt;&lt;/span&gt;&lt;span style=&quot;font-family: Verdana; text-wrap: nowrap;&quot;&gt;DATETIME&lt;/span&gt;" style="shape=partialRectangle;connectable=0;fillColor=none;top=0;left=0;bottom=0;right=0;align=left;spacingLeft=6;overflow=hidden;whiteSpace=wrap;html=1;" vertex="1" parent="W6JMrzAl0BDulRiqm-cF-218">
          <mxGeometry x="30" width="400" height="30" as="geometry">
            <mxRectangle width="400" height="30" as="alternateBounds" />
          </mxGeometry>
        </mxCell>
        <mxCell id="W6JMrzAl0BDulRiqm-cF-221" value="" style="shape=tableRow;horizontal=0;startSize=0;swimlaneHead=0;swimlaneBody=0;fillColor=none;collapsible=0;dropTarget=0;points=[[0,0.5],[1,0.5]];portConstraint=eastwest;top=0;left=0;right=0;bottom=0;" vertex="1" parent="W6JMrzAl0BDulRiqm-cF-208">
          <mxGeometry y="150" width="430" height="30" as="geometry" />
        </mxCell>
        <mxCell id="W6JMrzAl0BDulRiqm-cF-222" value="" style="shape=partialRectangle;connectable=0;fillColor=none;top=0;left=0;bottom=0;right=0;editable=1;overflow=hidden;whiteSpace=wrap;html=1;" vertex="1" parent="W6JMrzAl0BDulRiqm-cF-221">
          <mxGeometry width="30" height="30" as="geometry">
            <mxRectangle width="30" height="30" as="alternateBounds" />
          </mxGeometry>
        </mxCell>
        <mxCell id="W6JMrzAl0BDulRiqm-cF-223" value="&lt;span style=&quot;font-family: Verdana; text-wrap: nowrap;&quot;&gt;number_of_guests&lt;/span&gt;&lt;span style=&quot;font-family: Verdana; white-space: pre;&quot;&gt;&#x9;&lt;/span&gt;&lt;font face=&quot;Verdana&quot;&gt;&lt;span style=&quot;text-wrap: nowrap;&quot;&gt;INT&lt;/span&gt;&lt;/font&gt;" style="shape=partialRectangle;connectable=0;fillColor=none;top=0;left=0;bottom=0;right=0;align=left;spacingLeft=6;overflow=hidden;whiteSpace=wrap;html=1;" vertex="1" parent="W6JMrzAl0BDulRiqm-cF-221">
          <mxGeometry x="30" width="400" height="30" as="geometry">
            <mxRectangle width="400" height="30" as="alternateBounds" />
          </mxGeometry>
        </mxCell>
        <mxCell id="W6JMrzAl0BDulRiqm-cF-224" value="" style="shape=tableRow;horizontal=0;startSize=0;swimlaneHead=0;swimlaneBody=0;fillColor=none;collapsible=0;dropTarget=0;points=[[0,0.5],[1,0.5]];portConstraint=eastwest;top=0;left=0;right=0;bottom=0;" vertex="1" parent="W6JMrzAl0BDulRiqm-cF-208">
          <mxGeometry y="180" width="430" height="30" as="geometry" />
        </mxCell>
        <mxCell id="W6JMrzAl0BDulRiqm-cF-225" value="" style="shape=partialRectangle;connectable=0;fillColor=none;top=0;left=0;bottom=0;right=0;editable=1;overflow=hidden;whiteSpace=wrap;html=1;" vertex="1" parent="W6JMrzAl0BDulRiqm-cF-224">
          <mxGeometry width="30" height="30" as="geometry">
            <mxRectangle width="30" height="30" as="alternateBounds" />
          </mxGeometry>
        </mxCell>
        <mxCell id="W6JMrzAl0BDulRiqm-cF-226" value="&lt;span style=&quot;font-family: Verdana; text-wrap: nowrap;&quot;&gt;status&lt;/span&gt;&lt;span style=&quot;text-wrap: nowrap; font-family: Verdana;&quot;&gt;&lt;span style=&quot;white-space-collapse: preserve;&quot;&gt;&#x9;&lt;/span&gt;&lt;span style=&quot;white-space-collapse: preserve;&quot;&gt;&#x9;&lt;span style=&quot;white-space: pre;&quot;&gt;&#x9;&lt;/span&gt;&lt;/span&gt;&lt;/span&gt;&lt;span style=&quot;font-family: Verdana; text-wrap: nowrap;&quot;&gt;ENUM&amp;nbsp;&lt;/span&gt;&lt;span style=&quot;font-family: Verdana; text-wrap: nowrap;&quot;&gt;(&#39;pending&#39;, &#39;completed&#39;, &#39;canceled&#39;)&lt;/span&gt;" style="shape=partialRectangle;connectable=0;fillColor=none;top=0;left=0;bottom=0;right=0;align=left;spacingLeft=6;overflow=hidden;whiteSpace=wrap;html=1;" vertex="1" parent="W6JMrzAl0BDulRiqm-cF-224">
          <mxGeometry x="30" width="400" height="30" as="geometry">
            <mxRectangle width="400" height="30" as="alternateBounds" />
          </mxGeometry>
        </mxCell>
        <mxCell id="W6JMrzAl0BDulRiqm-cF-227" value="" style="shape=tableRow;horizontal=0;startSize=0;swimlaneHead=0;swimlaneBody=0;fillColor=none;collapsible=0;dropTarget=0;points=[[0,0.5],[1,0.5]];portConstraint=eastwest;top=0;left=0;right=0;bottom=0;" vertex="1" parent="W6JMrzAl0BDulRiqm-cF-208">
          <mxGeometry y="210" width="430" height="30" as="geometry" />
        </mxCell>
        <mxCell id="W6JMrzAl0BDulRiqm-cF-228" value="FK1" style="shape=partialRectangle;connectable=0;fillColor=none;top=0;left=0;bottom=0;right=0;editable=1;overflow=hidden;whiteSpace=wrap;html=1;fontStyle=1" vertex="1" parent="W6JMrzAl0BDulRiqm-cF-227">
          <mxGeometry width="30" height="30" as="geometry">
            <mxRectangle width="30" height="30" as="alternateBounds" />
          </mxGeometry>
        </mxCell>
        <mxCell id="W6JMrzAl0BDulRiqm-cF-229" value="&lt;span style=&quot;font-family: Verdana; text-wrap: nowrap;&quot;&gt;restaurant_id&lt;/span&gt;&lt;span style=&quot;text-wrap: nowrap; font-family: Verdana;&quot;&gt;&lt;span style=&quot;white-space-collapse: preserve;&quot;&gt;&#x9;&lt;/span&gt;&lt;span style=&quot;white-space-collapse: preserve;&quot;&gt;&#x9;&lt;/span&gt;&lt;/span&gt;&lt;span style=&quot;text-wrap: nowrap; font-family: Verdana;&quot;&gt;INT&lt;/span&gt;" style="shape=partialRectangle;connectable=0;fillColor=none;top=0;left=0;bottom=0;right=0;align=left;spacingLeft=6;overflow=hidden;whiteSpace=wrap;html=1;fontStyle=1" vertex="1" parent="W6JMrzAl0BDulRiqm-cF-227">
          <mxGeometry x="30" width="400" height="30" as="geometry">
            <mxRectangle width="400" height="30" as="alternateBounds" />
          </mxGeometry>
        </mxCell>
        <mxCell id="W6JMrzAl0BDulRiqm-cF-230" value="" style="shape=tableRow;horizontal=0;startSize=0;swimlaneHead=0;swimlaneBody=0;fillColor=none;collapsible=0;dropTarget=0;points=[[0,0.5],[1,0.5]];portConstraint=eastwest;top=0;left=0;right=0;bottom=0;" vertex="1" parent="W6JMrzAl0BDulRiqm-cF-208">
          <mxGeometry y="240" width="430" height="30" as="geometry" />
        </mxCell>
        <mxCell id="W6JMrzAl0BDulRiqm-cF-231" value="FK2" style="shape=partialRectangle;connectable=0;fillColor=none;top=0;left=0;bottom=0;right=0;editable=1;overflow=hidden;whiteSpace=wrap;html=1;fontStyle=1" vertex="1" parent="W6JMrzAl0BDulRiqm-cF-230">
          <mxGeometry width="30" height="30" as="geometry">
            <mxRectangle width="30" height="30" as="alternateBounds" />
          </mxGeometry>
        </mxCell>
        <mxCell id="W6JMrzAl0BDulRiqm-cF-232" value="&lt;span style=&quot;font-family: Verdana; text-wrap: nowrap;&quot;&gt;user_id&lt;span style=&quot;font-weight: 400; white-space: pre;&quot;&gt;&#x9;&lt;/span&gt;&lt;/span&gt;&lt;span style=&quot;text-wrap: nowrap; font-family: Verdana;&quot;&gt;&lt;span style=&quot;white-space-collapse: preserve;&quot;&gt;&#x9;&lt;/span&gt;&lt;span style=&quot;white-space-collapse: preserve;&quot;&gt;&#x9;&lt;/span&gt;&lt;/span&gt;&lt;span style=&quot;text-wrap: nowrap; font-family: Verdana;&quot;&gt;INT&lt;/span&gt;" style="shape=partialRectangle;connectable=0;fillColor=none;top=0;left=0;bottom=0;right=0;align=left;spacingLeft=6;overflow=hidden;whiteSpace=wrap;html=1;fontStyle=1" vertex="1" parent="W6JMrzAl0BDulRiqm-cF-230">
          <mxGeometry x="30" width="400" height="30" as="geometry">
            <mxRectangle width="400" height="30" as="alternateBounds" />
          </mxGeometry>
        </mxCell>
        <mxCell id="W6JMrzAl0BDulRiqm-cF-233" value="&lt;span style=&quot;font-family: Verdana; text-align: left;&quot;&gt;&lt;font style=&quot;&quot; color=&quot;#ffffff&quot;&gt;Order_Items&lt;/font&gt;&lt;/span&gt;" style="shape=table;startSize=30;container=1;collapsible=1;childLayout=tableLayout;fixedRows=1;rowLines=0;fontStyle=1;align=center;resizeLast=1;html=1;fillColor=#6666FF;" vertex="1" parent="1">
          <mxGeometry x="35" y="-80" width="240" height="180" as="geometry" />
        </mxCell>
        <mxCell id="W6JMrzAl0BDulRiqm-cF-234" value="" style="shape=tableRow;horizontal=0;startSize=0;swimlaneHead=0;swimlaneBody=0;fillColor=none;collapsible=0;dropTarget=0;points=[[0,0.5],[1,0.5]];portConstraint=eastwest;top=0;left=0;right=0;bottom=1;" vertex="1" parent="W6JMrzAl0BDulRiqm-cF-233">
          <mxGeometry y="30" width="240" height="30" as="geometry" />
        </mxCell>
        <mxCell id="W6JMrzAl0BDulRiqm-cF-235" value="PK" style="shape=partialRectangle;connectable=0;fillColor=none;top=0;left=0;bottom=0;right=0;fontStyle=1;overflow=hidden;whiteSpace=wrap;html=1;" vertex="1" parent="W6JMrzAl0BDulRiqm-cF-234">
          <mxGeometry width="30" height="30" as="geometry">
            <mxRectangle width="30" height="30" as="alternateBounds" />
          </mxGeometry>
        </mxCell>
        <mxCell id="W6JMrzAl0BDulRiqm-cF-236" value="&lt;span style=&quot;font-family: Verdana; text-wrap: nowrap;&quot;&gt;order_item_id&lt;/span&gt;&lt;span style=&quot;text-wrap: nowrap; font-family: Verdana;&quot;&gt;&lt;span style=&quot;white-space-collapse: preserve;&quot;&gt;&#x9;&lt;span style=&quot;white-space-collapse: preserve;&quot;&gt;&#x9;&lt;/span&gt;&lt;/span&gt;&lt;/span&gt;&lt;span style=&quot;text-wrap: nowrap; font-family: Verdana;&quot;&gt;INT&lt;/span&gt;" style="shape=partialRectangle;connectable=0;fillColor=none;top=0;left=0;bottom=0;right=0;align=left;spacingLeft=6;fontStyle=5;overflow=hidden;whiteSpace=wrap;html=1;" vertex="1" parent="W6JMrzAl0BDulRiqm-cF-234">
          <mxGeometry x="30" width="210" height="30" as="geometry">
            <mxRectangle width="210" height="30" as="alternateBounds" />
          </mxGeometry>
        </mxCell>
        <mxCell id="W6JMrzAl0BDulRiqm-cF-237" value="" style="shape=tableRow;horizontal=0;startSize=0;swimlaneHead=0;swimlaneBody=0;fillColor=none;collapsible=0;dropTarget=0;points=[[0,0.5],[1,0.5]];portConstraint=eastwest;top=0;left=0;right=0;bottom=0;" vertex="1" parent="W6JMrzAl0BDulRiqm-cF-233">
          <mxGeometry y="60" width="240" height="30" as="geometry" />
        </mxCell>
        <mxCell id="W6JMrzAl0BDulRiqm-cF-238" value="" style="shape=partialRectangle;connectable=0;fillColor=none;top=0;left=0;bottom=0;right=0;editable=1;overflow=hidden;whiteSpace=wrap;html=1;" vertex="1" parent="W6JMrzAl0BDulRiqm-cF-237">
          <mxGeometry width="30" height="30" as="geometry">
            <mxRectangle width="30" height="30" as="alternateBounds" />
          </mxGeometry>
        </mxCell>
        <mxCell id="W6JMrzAl0BDulRiqm-cF-239" value="&lt;span style=&quot;font-family: Verdana; text-wrap: nowrap;&quot;&gt;quantity&lt;span style=&quot;white-space: pre;&quot;&gt;&#x9;&lt;/span&gt;&lt;/span&gt;&lt;span style=&quot;font-family: Verdana; white-space: pre;&quot;&gt;&lt;span style=&quot;white-space: pre;&quot;&gt;&#x9;&lt;/span&gt;INT&lt;/span&gt;" style="shape=partialRectangle;connectable=0;fillColor=none;top=0;left=0;bottom=0;right=0;align=left;spacingLeft=6;overflow=hidden;whiteSpace=wrap;html=1;" vertex="1" parent="W6JMrzAl0BDulRiqm-cF-237">
          <mxGeometry x="30" width="210" height="30" as="geometry">
            <mxRectangle width="210" height="30" as="alternateBounds" />
          </mxGeometry>
        </mxCell>
        <mxCell id="W6JMrzAl0BDulRiqm-cF-246" value="" style="shape=tableRow;horizontal=0;startSize=0;swimlaneHead=0;swimlaneBody=0;fillColor=none;collapsible=0;dropTarget=0;points=[[0,0.5],[1,0.5]];portConstraint=eastwest;top=0;left=0;right=0;bottom=0;" vertex="1" parent="W6JMrzAl0BDulRiqm-cF-233">
          <mxGeometry y="90" width="240" height="30" as="geometry" />
        </mxCell>
        <mxCell id="W6JMrzAl0BDulRiqm-cF-247" value="" style="shape=partialRectangle;connectable=0;fillColor=none;top=0;left=0;bottom=0;right=0;editable=1;overflow=hidden;whiteSpace=wrap;html=1;" vertex="1" parent="W6JMrzAl0BDulRiqm-cF-246">
          <mxGeometry width="30" height="30" as="geometry">
            <mxRectangle width="30" height="30" as="alternateBounds" />
          </mxGeometry>
        </mxCell>
        <mxCell id="W6JMrzAl0BDulRiqm-cF-248" value="&lt;span style=&quot;font-family: Verdana; text-wrap: nowrap;&quot;&gt;price&lt;span style=&quot;white-space: pre;&quot;&gt;&#x9;&lt;/span&gt;&lt;span style=&quot;white-space: pre;&quot;&gt;&#x9;&lt;/span&gt;&lt;/span&gt;&lt;span style=&quot;font-family: Verdana; white-space: pre;&quot;&gt;&#x9;&lt;/span&gt;&lt;span style=&quot;font-family: Verdana; text-wrap: nowrap;&quot;&gt;DECIMAL(10,2)&lt;/span&gt;" style="shape=partialRectangle;connectable=0;fillColor=none;top=0;left=0;bottom=0;right=0;align=left;spacingLeft=6;overflow=hidden;whiteSpace=wrap;html=1;" vertex="1" parent="W6JMrzAl0BDulRiqm-cF-246">
          <mxGeometry x="30" width="210" height="30" as="geometry">
            <mxRectangle width="210" height="30" as="alternateBounds" />
          </mxGeometry>
        </mxCell>
        <mxCell id="W6JMrzAl0BDulRiqm-cF-252" value="" style="shape=tableRow;horizontal=0;startSize=0;swimlaneHead=0;swimlaneBody=0;fillColor=none;collapsible=0;dropTarget=0;points=[[0,0.5],[1,0.5]];portConstraint=eastwest;top=0;left=0;right=0;bottom=0;" vertex="1" parent="W6JMrzAl0BDulRiqm-cF-233">
          <mxGeometry y="120" width="240" height="30" as="geometry" />
        </mxCell>
        <mxCell id="W6JMrzAl0BDulRiqm-cF-253" value="FK1" style="shape=partialRectangle;connectable=0;fillColor=none;top=0;left=0;bottom=0;right=0;editable=1;overflow=hidden;whiteSpace=wrap;html=1;fontStyle=1" vertex="1" parent="W6JMrzAl0BDulRiqm-cF-252">
          <mxGeometry width="30" height="30" as="geometry">
            <mxRectangle width="30" height="30" as="alternateBounds" />
          </mxGeometry>
        </mxCell>
        <mxCell id="W6JMrzAl0BDulRiqm-cF-254" value="&lt;span style=&quot;font-family: Verdana; text-wrap: nowrap;&quot;&gt;order_id&lt;/span&gt;&lt;span style=&quot;text-wrap: nowrap; font-family: Verdana;&quot;&gt;&lt;span style=&quot;white-space-collapse: preserve;&quot;&gt;&#x9;&lt;/span&gt;&lt;span style=&quot;white-space-collapse: preserve;&quot;&gt;&#x9;&lt;/span&gt;&lt;/span&gt;&lt;span style=&quot;text-wrap: nowrap; font-family: Verdana;&quot;&gt;INT&lt;/span&gt;" style="shape=partialRectangle;connectable=0;fillColor=none;top=0;left=0;bottom=0;right=0;align=left;spacingLeft=6;overflow=hidden;whiteSpace=wrap;html=1;fontStyle=1" vertex="1" parent="W6JMrzAl0BDulRiqm-cF-252">
          <mxGeometry x="30" width="210" height="30" as="geometry">
            <mxRectangle width="210" height="30" as="alternateBounds" />
          </mxGeometry>
        </mxCell>
        <mxCell id="W6JMrzAl0BDulRiqm-cF-255" value="" style="shape=tableRow;horizontal=0;startSize=0;swimlaneHead=0;swimlaneBody=0;fillColor=none;collapsible=0;dropTarget=0;points=[[0,0.5],[1,0.5]];portConstraint=eastwest;top=0;left=0;right=0;bottom=0;" vertex="1" parent="W6JMrzAl0BDulRiqm-cF-233">
          <mxGeometry y="150" width="240" height="30" as="geometry" />
        </mxCell>
        <mxCell id="W6JMrzAl0BDulRiqm-cF-256" value="FK2" style="shape=partialRectangle;connectable=0;fillColor=none;top=0;left=0;bottom=0;right=0;editable=1;overflow=hidden;whiteSpace=wrap;html=1;fontStyle=1" vertex="1" parent="W6JMrzAl0BDulRiqm-cF-255">
          <mxGeometry width="30" height="30" as="geometry">
            <mxRectangle width="30" height="30" as="alternateBounds" />
          </mxGeometry>
        </mxCell>
        <mxCell id="W6JMrzAl0BDulRiqm-cF-257" value="&lt;span style=&quot;font-family: Verdana; text-wrap: nowrap;&quot;&gt;item_id&lt;span style=&quot;font-weight: 400; white-space: pre;&quot;&gt;&#x9;&lt;/span&gt;&lt;/span&gt;&lt;span style=&quot;text-wrap: nowrap; font-family: Verdana;&quot;&gt;&lt;span style=&quot;white-space-collapse: preserve;&quot;&gt;&#x9;&lt;/span&gt;&lt;/span&gt;&lt;span style=&quot;text-wrap: nowrap; font-family: Verdana;&quot;&gt;INT&lt;/span&gt;" style="shape=partialRectangle;connectable=0;fillColor=none;top=0;left=0;bottom=0;right=0;align=left;spacingLeft=6;overflow=hidden;whiteSpace=wrap;html=1;fontStyle=1" vertex="1" parent="W6JMrzAl0BDulRiqm-cF-255">
          <mxGeometry x="30" width="210" height="30" as="geometry">
            <mxRectangle width="210" height="30" as="alternateBounds" />
          </mxGeometry>
        </mxCell>
        <mxCell id="W6JMrzAl0BDulRiqm-cF-258" value="" style="edgeStyle=entityRelationEdgeStyle;fontSize=12;html=1;endArrow=ERoneToMany;rounded=0;exitX=1;exitY=0.5;exitDx=0;exitDy=0;fontStyle=0;strokeColor=#A50040;flowAnimation=0;shadow=0;fillColor=#d80073;" edge="1" parent="1" source="W6JMrzAl0BDulRiqm-cF-146" target="W6JMrzAl0BDulRiqm-cF-24">
          <mxGeometry width="100" height="100" relative="1" as="geometry">
            <mxPoint x="230" y="-190" as="sourcePoint" />
            <mxPoint x="330" y="-290" as="targetPoint" />
            <Array as="points">
              <mxPoint x="320" y="-600" />
            </Array>
          </mxGeometry>
        </mxCell>
        <mxCell id="W6JMrzAl0BDulRiqm-cF-259" value="" style="edgeStyle=entityRelationEdgeStyle;fontSize=12;html=1;endArrow=ERoneToMany;rounded=0;spacing=2;spacingRight=0;exitX=1.001;exitY=0.088;exitDx=0;exitDy=0;exitPerimeter=0;fillColor=#e3c800;strokeColor=#B09500;" edge="1" parent="1" source="W6JMrzAl0BDulRiqm-cF-128" target="W6JMrzAl0BDulRiqm-cF-99">
          <mxGeometry width="100" height="100" relative="1" as="geometry">
            <mxPoint x="270" y="-560" as="sourcePoint" />
            <mxPoint x="335" y="-650" as="targetPoint" />
          </mxGeometry>
        </mxCell>
        <mxCell id="W6JMrzAl0BDulRiqm-cF-260" value="" style="edgeStyle=entityRelationEdgeStyle;fontSize=12;html=1;endArrow=ERoneToMany;rounded=0;exitX=1;exitY=0.5;exitDx=0;exitDy=0;" edge="1" parent="1" source="W6JMrzAl0BDulRiqm-cF-184">
          <mxGeometry width="100" height="100" relative="1" as="geometry">
            <mxPoint x="330" y="-500" as="sourcePoint" />
            <mxPoint x="360" y="-600" as="targetPoint" />
          </mxGeometry>
        </mxCell>
        <mxCell id="W6JMrzAl0BDulRiqm-cF-261" value="" style="edgeStyle=entityRelationEdgeStyle;fontSize=12;html=1;endArrow=ERoneToMany;rounded=0;exitX=1;exitY=0.209;exitDx=0;exitDy=0;exitPerimeter=0;fillColor=#dae8fc;strokeColor=#6c8ebf;gradientColor=#7ea6e0;" edge="1" parent="1" source="W6JMrzAl0BDulRiqm-cF-128" target="W6JMrzAl0BDulRiqm-cF-205">
          <mxGeometry width="100" height="100" relative="1" as="geometry">
            <mxPoint x="280" y="-548" as="sourcePoint" />
            <mxPoint x="560" y="-690" as="targetPoint" />
          </mxGeometry>
        </mxCell>
        <mxCell id="W6JMrzAl0BDulRiqm-cF-266" value="" style="edgeStyle=entityRelationEdgeStyle;fontSize=12;html=1;endArrow=ERoneToMany;rounded=0;entryX=0;entryY=0.5;entryDx=0;entryDy=0;exitX=1;exitY=0.308;exitDx=0;exitDy=0;exitPerimeter=0;fillColor=#60a917;strokeColor=#2D7600;" edge="1" parent="1" source="W6JMrzAl0BDulRiqm-cF-128" target="W6JMrzAl0BDulRiqm-cF-124">
          <mxGeometry width="100" height="100" relative="1" as="geometry">
            <mxPoint x="290" y="-540" as="sourcePoint" />
            <mxPoint x="500" y="-320" as="targetPoint" />
          </mxGeometry>
        </mxCell>
        <mxCell id="W6JMrzAl0BDulRiqm-cF-267" value="" style="edgeStyle=entityRelationEdgeStyle;fontSize=12;html=1;endArrow=ERoneToMany;rounded=0;exitX=0.999;exitY=0.415;exitDx=0;exitDy=0;exitPerimeter=0;" edge="1" parent="1" source="W6JMrzAl0BDulRiqm-cF-128" target="W6JMrzAl0BDulRiqm-cF-180">
          <mxGeometry width="100" height="100" relative="1" as="geometry">
            <mxPoint x="300" y="-490" as="sourcePoint" />
            <mxPoint x="400" y="-590" as="targetPoint" />
          </mxGeometry>
        </mxCell>
        <mxCell id="W6JMrzAl0BDulRiqm-cF-268" value="" style="edgeStyle=entityRelationEdgeStyle;fontSize=12;html=1;endArrow=ERoneToMany;rounded=0;exitX=1;exitY=0.52;exitDx=0;exitDy=0;entryX=0;entryY=0.5;entryDx=0;entryDy=0;exitPerimeter=0;" edge="1" parent="1" source="W6JMrzAl0BDulRiqm-cF-128" target="W6JMrzAl0BDulRiqm-cF-227">
          <mxGeometry width="100" height="100" relative="1" as="geometry">
            <mxPoint x="300" y="190" as="sourcePoint" />
            <mxPoint x="400" y="90" as="targetPoint" />
          </mxGeometry>
        </mxCell>
      </root>
    </mxGraphModel>
  </diagram>
</mxfile>
